<svg id="Capa_1" enable-background="new 0 0 512 512" height="512" viewBox="0 0 512 512" width="512" xmlns="http://www.w3.org/2000/svg"><g><path d="m40.996 60.003c-8.284 0-15 6.716-15 15s6.716 15 15 15h15.001v-30z"/><path d="m40.996 421.997c-8.284 0-15 6.716-15 15s6.716 15 15 15h15.001v-30z"/><path d="m40.996 240.997c-8.284 0-15 6.716-15 15s6.716 15 15 15h15.001v-30z"/><path d="m40.996 150.992c-8.284 0-15 6.716-15 15s6.716 15 15 15h15.001v-30z"/><path d="m40.996 331.001c-8.284 0-15 6.716-15 15s6.716 15 15 15h15.001v-30z"/><path d="m55.998 15v45.003h30c8.284 0 15 6.716 15 15s-6.716 15-15 15h-30v60.989h30c8.284 0 15 6.716 15 15s-6.716 15-15 15h-30v60.004h30c8.284 0 15 6.716 15 15s-6.716 15-15 15h-30v60.004h30c8.284 0 15 6.716 15 15s-6.716 15-15 15h-30v60.996h30c8.284 0 15 6.716 15 15s-6.716 15-15 15h-30v45.004c0 8.284 6.716 15 15 15h75.004v-512h-75.004c-8.284 0-15 6.716-15 15z"/><path d="m251.002 90h160.001v60.992h-160.001z"/><path d="m471.004 0h-295.002v512h295.002c8.284 0 15-6.716 15-15v-482c0-8.284-6.716-15-15-15zm-75.003 451.993h-129.997c-8.284 0-15-6.716-15-15s6.716-15 15-15h129.997c8.284 0 15 6.716 15 15s-6.716 15-15 15zm0-65.003h-129.997c-8.284 0-15-6.716-15-15s6.716-15 15-15h129.997c8.284 0 15 6.716 15 15s-6.716 15-15 15zm45.003-220.998c0 8.284-6.716 15-15 15h-190.002c-8.284 0-15-6.716-15-15v-90.992c0-8.284 6.716-15 15-15h190.002c8.284 0 15 6.716 15 15z"/></g></svg>