<svg id="Capa_1" enable-background="new 0 0 512.055 512.055" height="512" viewBox="0 0 512.055 512.055" width="512" xmlns="http://www.w3.org/2000/svg"><g><g><path d="m338.222 159.528-68.965-129.069c-2.768-5.18-7.818-7.816-12.914-7.921l-83.197 146.99z" fill="#ffc250"/><path d="m256.343 22.537c-5.307-.109-10.663 2.527-13.546 7.921l-68.965 129.069 6.069 6.072z" fill="#e69642"/><path d="m125.057 259.528 261.254-10-48.089-90h-155.076z" fill="#e27f86"/><path d="m183.146 159.528h-9.313l-48.09 90 6.069 6.072z" fill="#d16161"/><path d="m76.968 349.528 357.433-10-48.09-90h-251.254z" fill="#fff0af"/><path d="m135.057 249.528h-9.314l-48.089 90 6.069 6.072z" fill="#ffe07d"/><path d="m434.401 339.528h-347.433l-72.462 132 489.166-2c-.25-.696-.55-1.388-.914-2.069z" fill="#c2e4a1"/><path d="m29.297 447.458 57.67-107.931h-9.313l-68.357 127.931c-5.339 9.992 1.901 22.069 13.23 22.069h467c10.556 0 17.557-10.486 14.144-20h-461.144c-11.329.001-18.569-12.077-13.23-22.069z" fill="#98ca91"/><path d="m194.666 369.528c-7.282 0-20 3.243-20 3.243s-12.718-3.243-20-3.243c-5.876 0-11.088 1.212-15.588 3.374-10.15 7.749-14.484 22.714-14.484 30.071 0 21.232 16.472 51.555 36.791 51.555 6.656 0 18.281-3.243 18.281-3.243s11.624 3.243 18.281 3.243c3.899 0 17.653-11.124 21.18-13.078 6.559-10.193 10.612-22.95 10.612-33.477-.001-21.233-12.842-38.445-35.073-38.445z" fill="#e27f86"/><path d="m183.666 443.285s-11.624 3.243-18.281 3.243c-20.319 0-32.791-28.323-32.791-49.555 0-7.356 1.077-17.903 6.484-24.071-12.526 6.016-19.484 19.45-19.484 35.071 0 21.232 16.472 51.555 36.791 51.555 6.656 0 18.281-3.243 18.281-3.243s11.624 3.243 18.281 3.243c10.245 0 19.509-7.713 26.18-18.078-3.526 1.954-13.281 5.078-17.18 5.078-6.656 0-18.281-3.243-18.281-3.243z" fill="#d16161"/><path d="m337.374 433.117c3.359.702 6.806 4.088 10.329 4.088 11.146 0 21.578-6.676 30.561-13.066 11.917-13.626 19.372-33.037 19.372-54.611-30.605 0-55.898 27.582-60.262 63.589z" fill="#98ca91"/><path d="m337.374 433.117c-.439 3.618-.671 7.319-.671 11.088 16.076 0 30.678-7.622 41.561-20.066-8.983 6.391-19.415 10.066-30.561 10.066-3.524 0-6.971-.386-10.329-1.088z" fill="#68b181"/><path d="m336 432.817c-3.881-31.156-23.447-55.932-48.528-61.902 0 30.951 15.111 61.902 48.528 61.902z" fill="#98ca91"/><path d="m287.472 370.916c-3.788-.902-7.698-1.388-11.703-1.388 0 41.277 27.253 74.677 60.933 74.677 0-3.872-.24-7.675-.703-11.388-25.079-5.969-44.645-30.745-48.527-61.901z" fill="#68b181"/><path d="m252.163 159.528c-7.124 0-13.664 2.488-18.809 6.636-.77 2.656-4.191 10.46-4.191 13.364 0 16.569 13.431 30 30 30 4.555 0 16.166-5 23-5 0-5.632 0-11.508 0-15 0-16.569-13.431-30-30-30z" fill="#c38778"/><path d="m230.653 179.543c0-5.225 1.931-10.723 2.701-13.379-6.822 5.499-11.191 13.92-11.191 23.364 0 16.569 13.431 30 30 30h30s0-7.269 0-15c-6.834 0-23.209-.23-26.755-.23-12.899-.001-24.755-11.084-24.755-24.755z" fill="#b1705b"/><path d="m274.493 111.062c0 10.198-8.267 18.466-18.466 18.466-10.198 0-18.466-8.267-18.466-18.466s18.466-38.466 18.466-38.466 18.466 28.267 18.466 38.466z" fill="#fff0af"/></g><g><path d="m489.527 497.028h-467c-7.98 0-15.195-4.086-19.298-10.931-4.103-6.845-4.308-15.134-.546-22.172l28.282-52.931c1.952-3.653 6.494-5.033 10.149-3.08 3.653 1.952 5.032 6.496 3.08 10.149l-28.282 52.931c-1.807 3.381-.474 6.295.183 7.391.657 1.095 2.598 3.644 6.433 3.644h306.675v-30.813c-34.22-4.498-60.933-39.417-60.933-81.688 0-4.142 3.358-7.5 7.5-7.5 26.529 0 49.582 18.224 60.933 44.793 11.351-26.569 34.403-44.793 60.933-44.793 4.142 0 7.5 3.358 7.5 7.5 0 42.271-26.713 77.189-60.933 81.688v30.813h145.325c3.834 0 5.776-2.548 6.433-3.644s1.989-4.009.183-7.391l-66.238-123.966h-191.168c-4.142 0-7.5-3.358-7.5-7.5s3.358-7.5 7.5-7.5h183.152l-40.074-75h-251.577l-40.074 75h117.745c4.142 0 7.5 3.358 7.5 7.5s-3.358 7.5-7.5 7.5c-10.719 0-20.008 6.683-23.854 16.099 3.596-.611 7.453-1.099 10.611-1.099 25.065 0 42.572 18.893 42.572 45.944 0 23.781-18.598 59.056-44.291 59.056-5.91 0-14.369-1.979-18.281-2.982-3.912 1.004-12.371 2.982-18.281 2.982-25.693 0-44.292-35.275-44.292-59.056 0-27.051 17.506-45.944 42.572-45.944 4.039 0 9.219.796 13.537 1.63 1.433-6.193 4.293-11.859 8.208-16.63h-94.261l-24.585 46.011c-1.952 3.652-6.494 5.032-10.149 3.08-3.653-1.952-5.032-6.496-3.08-10.149l191.847-359.046c3.921-7.338 11.525-11.896 19.845-11.896s15.924 4.559 19.845 11.896l38.879 72.763c1.952 3.653.573 8.198-3.08 10.149-3.653 1.953-8.197.573-10.149-3.08l-38.879-72.763c-1.913-3.579-5.263-3.966-6.615-3.966s-4.703.387-6.615 3.966l-63.069 118.035h14.82c4.142 0 7.5 3.358 7.5 7.5s-3.358 7.5-7.5 7.5h-22.834l-40.075 75h155.803l-15-15h-26.894c-20.678 0-37.5-16.822-37.5-37.5s16.822-37.5 37.5-37.5h73.548l-10.133-18.965c-1.952-3.653-.573-8.198 3.08-10.149 3.654-1.952 8.197-.573 10.149 3.08l180.565 337.931c3.761 7.039 3.557 15.327-.546 22.172-4.106 6.844-11.32 10.931-19.301 10.931zm-314.86-48.243c.678 0 1.356.092 2.015.275 2.963.825 11.667 2.967 16.265 2.967 6.583 0 13.773-5.25 19.729-14.405 5.898-9.067 9.563-20.429 9.563-29.65 0-14.275-7.221-30.944-27.572-30.944-5.183 0-14.858 2.173-18.148 3.011-1.214.31-2.489.31-3.703 0-3.291-.837-12.965-3.011-18.148-3.011-20.351 0-27.572 16.669-27.572 30.944 0 9.222 3.664 20.583 9.563 29.65 5.955 9.155 13.146 14.405 19.729 14.405 4.599 0 13.302-2.143 16.268-2.968.656-.183 1.333-.274 2.011-.274zm109.002-71.025c2.918 29.908 21.532 53.797 45.135 58.213-2.919-29.908-21.533-53.797-45.135-58.213zm106.067 0c-23.603 4.416-42.216 28.305-45.135 58.213 23.603-4.416 42.217-28.305 45.135-58.213zm-74.466-135.732h58.53l-40.074-75h-51.581c4.718 6.271 7.518 14.065 7.518 22.5v26.894zm-63.107-75c-12.407 0-22.5 10.093-22.5 22.5s10.093 22.5 22.5 22.5h22.5v-22.5c0-12.407-10.093-22.5-22.5-22.5zm-24.886 146.985c-3.587 2.071-8.174.842-10.245-2.745l-15-25.98c-2.071-3.587-.842-8.174 2.745-10.245s8.174-.842 10.245 2.745l15 25.98c2.072 3.587.843 8.174-2.745 10.245zm40 0c-3.587 2.071-8.174.842-10.245-2.745l-15-25.98c-2.071-3.587-.842-8.174 2.745-10.245 3.586-2.071 8.174-.842 10.245 2.745l15 25.98c2.072 3.587.843 8.174-2.745 10.245zm40 0c-3.587 2.071-8.174.842-10.245-2.745l-15-25.98c-2.071-3.587-.842-8.174 2.745-10.245s8.174-.842 10.245 2.745l15 25.98c2.072 3.587.843 8.174-2.745 10.245zm-51.25-176.985c-14.317 0-25.966-11.648-25.966-25.966 0-11.535 15.068-35.498 19.687-42.567 1.385-2.121 3.746-3.398 6.279-3.398s4.894 1.278 6.279 3.398c4.619 7.069 19.687 31.033 19.687 42.567 0 14.318-11.648 25.966-25.966 25.966zm0-50.126c-5.989 10.303-10.966 20.607-10.966 24.16 0 6.046 4.919 10.966 10.966 10.966 6.046 0 10.966-4.919 10.966-10.966 0-3.553-4.976-13.857-10.966-24.16z"/></g></g></svg>