<svg id="Layer_1" enable-background="new 0 0 512 512" height="512" viewBox="0 0 512 512" width="512" xmlns="http://www.w3.org/2000/svg"><g><g><g><path d="m455.945 294.785-22.98-58.648c-4.566-11.653-7.624-23.84-9.14-36.263-10.543-86.392-84.594-153.171-174.053-152.218-95.208 1.013-172.243 79.498-171.565 174.709.407 57.128 28.444 107.67 71.402 138.977 8.029 5.851 12.717 15.237 12.717 25.171v117.987h199.807v-91.569l50.539-4.585c12.322-1.118 21.196-12.328 19.455-24.577l-9.152-64.415 27.466-11.539c5.066-2.13 7.509-7.913 5.504-13.03z" fill="#8dcafc"/><g fill="#64b9fc"><path d="m326.705 291.532v123.032c0 3.496-2.841 6.328-6.327 6.328h-123.043c-3.487 0-6.317-2.831-6.317-6.328 0 3.496-2.831 6.328-6.328 6.328h-22.37v-34.379c0-9.933-4.688-19.32-12.714-25.171-42.951-31.309-70.993-81.849-71.4-138.975-.189-25.936 5.394-50.619 15.545-72.85h90.938c3.497 0 6.328 2.831 6.328 6.327v30.147c0 4.897 5.354 8.006 9.526 5.453 4.986-3.04 10.907-4.689 17.234-4.391 15.635.715 28.31 13.499 28.896 29.134.646 17.304-13.181 31.518-30.326 31.518-5.741 0-11.105-1.589-15.675-4.351-4.241-2.563-9.655.417-9.655 5.374v30.147c0 3.497-2.831 6.327-6.328 6.327 3.497 0 6.328 2.831 6.328 6.327 0-3.496 2.831-6.327 6.317-6.327h30.157c4.957 0 7.937 5.414 5.374 9.655-2.761 4.579-4.351 9.943-4.351 15.675 0 17.145 14.214 30.982 31.518 30.326 15.635-.586 28.419-13.251 29.134-28.886.298-6.327-1.351-12.257-4.391-17.244-2.553-4.172.556-9.526 5.443-9.526h30.157c3.489.003 6.33 2.834 6.33 6.33z"/><g><path d="m362.131 412.931h-30.187c-5.077 0-9.192 4.116-9.192 9.192v82.377h39.379z"/><path d="m455.946 294.788-22.981-58.656c-4.605-11.748-7.63-24.047-9.183-36.576-10.58-85.433-83.291-151.608-171.527-151.911-6.747-.018-13.402.34-19.947 1.085 25.172 2.792 48.742 10.892 69.568 23.154l-57.795 57.787c-2.463 2.473-2.463 6.476 0 8.94l21.327 21.327c3.457 3.457 9.446 1.867 10.589-2.881 1.371-5.682 4.4-11.036 9.079-15.307 11.562-10.539 29.561-10.46 41.034.179 12.694 11.771 12.973 31.607.844 43.736-4.053 4.053-8.97 6.725-14.165 8.006-4.808 1.182-6.536 7.122-3.029 10.619l21.327 21.327c2.463 2.473 6.476 2.473 8.94 0l21.327-21.327c3.506-3.497 9.437-1.778 10.628 3.03 1.271 5.195 3.943 10.112 7.996 14.165 3.839 3.839 8.451 6.431 13.335 7.784 1.025 3.273 2.154 6.515 3.409 9.715l23.33 59.529c2.031 5.203-.451 11.067-5.598 13.228l-21.341 8.964c-3.853 1.618-6.129 5.631-5.541 9.768l8.295 58.372c1.296 9.1-3.189 17.631-10.589 21.988l27.393-2.482c12.327-1.122 21.197-12.327 19.46-24.58l-9.155-64.419 27.466-11.536c5.063-2.126 7.508-7.917 5.504-13.028z"/></g></g></g><g><path d="m423.889 146.288c-4.269-4.682-9.624-7.708-15.299-9.079-4.754-1.148-6.341-7.135-2.883-10.593l21.32-21.32c2.47-2.47 2.47-6.474 0-8.944l-87-87c-2.47-2.47-6.474-2.47-8.944 0l-87 87c-2.47 2.47-2.47 6.474 0 8.944l21.32 21.32c3.458 3.458 9.445 1.871 10.593-2.883 1.371-5.674 4.397-11.03 9.079-15.299 11.564-10.544 29.559-10.465 41.032.177 12.692 11.772 12.968 31.608.843 43.733-4.055 4.055-8.973 6.723-14.163 8.003-4.813 1.186-6.532 7.121-3.027 10.626l21.323 21.323c2.47 2.47 6.474 2.47 8.944 0l21.323-21.323c3.505-3.505 9.44-1.785 10.626 3.028 1.28 5.19 3.947 10.108 8.003 14.163 12.125 12.125 31.96 11.849 43.733-.843 10.642-11.474 10.721-29.469.177-41.033z" fill="#27d1b3"/><path d="m423.713 187.323c-9.079 9.784-22.976 12.188-34.409 7.192.437-.427.874-.854 1.291-1.311 10.638-11.473 10.718-29.462.179-41.024-4.271-4.688-9.625-7.708-15.307-9.079-4.748-1.152-6.337-7.142-2.881-10.599l21.317-21.317c2.473-2.473 2.473-6.476 0-8.95l-77.846-77.846 15.029-15.039c2.463-2.463 6.476-2.463 8.94 0l87.005 87.005c2.463 2.464 2.463 6.467 0 8.94l-21.327 21.317c-3.457 3.467-1.867 9.446 2.891 10.599 5.672 1.371 11.026 4.4 15.297 9.079 10.538 11.561 10.459 29.56-.179 41.033z" fill="#20b69f"/></g><g><path d="m217.782 153.731c-6.329-.292-12.256 1.355-17.238 4.398-4.173 2.549-9.529-.561-9.529-5.452v-30.151c0-3.493-2.831-6.324-6.324-6.324h-123.036c-3.493 0-6.324 2.831-6.324 6.324v123.036c0 3.493 2.831 6.324 6.324 6.324h30.151c4.89 0 8.001-5.356 5.452-9.529-3.043-4.981-4.69-10.908-4.398-17.238.722-15.633 13.501-28.301 29.14-28.889 17.299-.65 31.52 13.18 31.52 30.328 0 5.735-1.591 11.099-4.356 15.674-2.564 4.242.416 9.655 5.373 9.655h30.155c3.493 0 6.324-2.831 6.324-6.324v-30.155c0-4.957 5.413-7.937 9.655-5.373 4.575 2.765 9.938 4.356 15.674 4.356 17.147 0 30.978-14.221 30.328-31.52-.589-15.639-13.258-28.419-28.891-29.14z" fill="#fc9744"/><g fill="#fb7722"><path d="m191.246 154.345c-1.54-.338-3.119-.536-4.738-.616-6.328-.288-12.258 1.361-17.234 4.4-4.172 2.553-9.536-.566-9.536-5.453v-30.147c0-3.496-2.831-6.327-6.318-6.327h31.27c3.497 0 6.328 2.831 6.328 6.327v30.147c0 .586.079 1.143.228 1.669z"/><path d="m216.347 214.391c-5.722 0-11.076-1.579-15.635-4.341 9.129-5.493 15.118-15.655 14.681-27.177-.397-10.489-6.208-19.688-14.721-24.823 4.957-2.99 10.827-4.609 17.105-4.321 15.635.725 28.31 13.499 28.896 29.144.646 17.294-13.181 31.518-30.326 31.518z"/><path d="m191.236 213.765c-.149.517-.218 1.063-.218 1.639v30.157c0 3.497-2.831 6.327-6.328 6.327h-30.157c-.159 0-.318-.01-.467-.03 3.189-.328 5.672-3.02 5.672-6.297v-30.157c0-4.957 5.414-7.937 9.655-5.374 4.579 2.771 9.943 4.361 15.675 4.361 2.116 0 4.172-.218 6.168-.626z"/></g></g><g><path d="m92.86 225.119c-.292 6.329 1.355 12.256 4.398 17.238 2.549 4.173-.561 9.529-5.452 9.529h-30.151c-3.493 0-6.324 2.831-6.324 6.324v123.036c0 3.493 2.831 6.324 6.324 6.324h123.036c3.493 0 6.324-2.831 6.324-6.324v-30.151c0-4.89-5.356-8.001-9.529-5.452-4.981 3.043-10.908 4.69-17.238 4.398-15.633-.722-28.301-13.501-28.889-29.14-.65-17.299 13.18-31.52 30.328-31.52 5.735 0 11.099 1.591 15.674 4.356 4.242 2.564 9.655-.416 9.655-5.373v-30.154c0-3.493-2.831-6.324-6.324-6.324h-30.155c-4.957 0-7.937-5.413-5.373-9.655 2.765-4.575 4.356-9.938 4.356-15.674 0-17.147-14.221-30.978-31.52-30.328-15.638.589-28.418 13.258-29.14 28.89z" fill="#fb4a59"/><g fill="#f82f40"><path d="m191.018 351.092v30.157c0 3.487-2.831 6.318-6.328 6.318h-31.27c3.487 0 6.318-2.831 6.318-6.318v-30.157c0-.586-.08-1.142-.219-1.659 1.54.328 3.119.536 4.728.606 6.327.298 12.258-1.351 17.234-4.39 4.183-2.554 9.537.555 9.537 5.443z"/><path d="m150.083 345.718c-4.947 3-10.827 4.619-17.105 4.321-15.635-.715-28.3-13.499-28.896-29.134-.646-17.304 13.181-31.518 30.336-31.518 5.722 0 11.076 1.579 15.635 4.331-9.129 5.493-15.128 15.655-14.691 27.187.397 10.479 6.208 19.677 14.721 24.813z"/><path d="m191.018 258.206v30.157c0 4.957-5.414 7.937-9.655 5.374-4.579-2.761-9.943-4.351-15.674-4.351-2.116 0-4.172.219-6.169.626.149-.517.219-1.073.219-1.649v-30.157c0-3.487-2.831-6.318-6.318-6.318h-30.157c-4.957 0-7.937-5.414-5.374-9.655 2.761-4.579 4.361-9.943 4.361-15.675 0-11.026-5.871-20.671-14.671-25.995 4.251-2.583 9.178-4.132 14.423-4.331 17.294-.656 31.518 13.181 31.518 30.326 0 5.731-1.589 11.095-4.361 15.675-2.563 4.241.417 9.655 5.374 9.655h30.157c3.496.001 6.327 2.832 6.327 6.318z"/></g></g><g><path d="m164.249 350.041c6.329.292 12.256-1.355 17.238-4.398 4.173-2.549 9.529.561 9.529 5.452v30.151c0 3.493 2.831 6.324 6.324 6.324h123.036c3.493 0 6.324-2.831 6.324-6.324v-123.036c0-3.493-2.831-6.324-6.324-6.324h-30.151c-4.89 0-8.001 5.356-5.452 9.529 3.043 4.981 4.69 10.908 4.398 17.238-.722 15.633-13.501 28.301-29.14 28.889-17.299.65-31.52-13.18-31.52-30.328 0-5.735 1.591-11.099 4.356-15.674 2.564-4.242-.416-9.655-5.373-9.655h-30.154c-3.493 0-6.324 2.831-6.324 6.324v30.155c0 4.957-5.413 7.937-9.655 5.373-4.575-2.765-9.938-4.356-15.674-4.356-17.147 0-30.978 14.221-30.328 31.52.589 15.639 13.257 28.419 28.89 29.14z" fill="#fee265"/><path d="m326.705 258.206v123.042c0 3.487-2.841 6.318-6.327 6.318h-31.28c3.496 0 6.327-2.831 6.327-6.318v-123.042c0-3.268-2.483-5.96-5.682-6.288.149-.02.318-.03.477-.03h30.157c3.487.001 6.328 2.832 6.328 6.318z" fill="#f8c52d"/></g></g><path d="m462.929 292.048-22.98-58.648c-4.313-11.007-7.233-22.593-8.679-34.437-.311-2.542-.695-5.088-1.113-7.614 12.303-14.328 12.087-36.062-.726-50.114-4.639-5.089-10.478-8.776-16.988-10.748l19.889-19.888c5.39-5.39 5.39-14.16-.001-19.55l-17.804-17.804c-2.93-2.929-7.678-2.929-10.607 0s-2.929 7.678.001 10.606l16.973 16.973-20.489 20.489c-3.538 3.539-4.894 8.736-3.535 13.564 1.343 4.775 5.159 8.462 9.961 9.623 4.43 1.07 8.412 3.436 11.518 6.842 7.924 8.691 7.865 22.254-.134 30.878-4.274 4.608-10.077 7.211-16.34 7.329-6.26.123-12.16-2.258-16.591-6.688-2.949-2.951-5.032-6.635-6.023-10.656-1.201-4.871-4.939-8.731-9.757-10.074-4.855-1.354-9.884-.031-13.456 3.539l-20.49 20.491-19.058-19.058c5.93-1.798 11.345-5.042 15.757-9.456 7.34-7.34 11.274-17.099 11.079-27.479-.194-10.375-4.501-19.983-12.125-27.055-14.296-13.26-36.779-13.356-51.186-.221-5.088 4.639-8.774 10.477-10.748 16.988l-19.057-19.056 85.337-85.337 43.335 43.335c2.93 2.929 7.678 2.929 10.607 0s2.929-7.678 0-10.606l-44.168-44.167c-2.611-2.611-6.083-4.049-9.775-4.049s-7.164 1.438-9.775 4.049l-39.435 39.435c-12.004-2.331-24.326-3.459-36.654-3.328-54.679.582-105.408 25.538-139.611 68.546h-48.426c-7.623 0-13.824 6.202-13.824 13.824v123.036c0 2.284.566 4.436 1.551 6.336-.982 1.894-1.551 4.034-1.551 6.312v46.999c0 4.142 3.357 7.5 7.5 7.5s7.5-3.358 7.5-7.5v-45.823h28.976c5.005 0 9.638-2.717 12.092-7.091 2.427-4.327 2.335-9.633-.24-13.848-2.375-3.888-3.519-8.377-3.306-12.982.542-11.749 10.175-21.299 21.93-21.74 6.285-.229 12.225 2.027 16.735 6.372 4.516 4.349 7.002 10.195 7.002 16.461 0 4.171-1.132 8.25-3.273 11.793-2.597 4.294-2.683 9.667-.226 14.023 2.476 4.39 6.968 7.011 12.017 7.011h28.979v26.952c-5.465-2.921-11.587-4.456-17.828-4.456-10.38 0-20.063 4.118-27.265 11.595-7.198 7.475-10.948 17.314-10.559 27.707.732 19.484 16.562 35.451 36.038 36.35 6.878.315 13.614-1.204 19.613-4.414v26.95h-120.685v-39.466c0-4.142-3.357-7.5-7.5-7.5s-7.5 3.358-7.5 7.5v40.642c0 7.623 6.201 13.824 13.824 13.824h93.169v109.431c0 4.142 3.357 7.5 7.5 7.5s7.5-3.358 7.5-7.5v-109.43h14.867c2.279 0 4.426-.564 6.324-1.545 1.896.983 4.044 1.545 6.325 1.545h59.919c4.143 0 7.5-3.358 7.5-7.5s-3.357-7.5-7.5-7.5h-58.743v-28.975c0-5.004-2.717-9.638-7.091-12.091-4.325-2.426-9.632-2.335-13.849.239-3.889 2.376-8.374 3.527-12.981 3.306-11.749-.542-21.299-10.175-21.74-21.929-.236-6.282 2.027-12.226 6.372-16.738 4.349-4.515 10.194-7.001 16.461-7.001 4.171 0 8.25 1.132 11.795 3.275 4.294 2.595 9.667 2.68 14.023.224 4.39-2.476 7.01-6.968 7.01-12.016v-28.979h26.951c-2.92 5.463-4.455 11.586-4.455 17.828 0 10.38 4.118 20.063 11.596 27.265 7.475 7.199 17.312 10.956 27.706 10.558 19.483-.732 35.45-16.562 36.35-36.038.317-6.879-1.204-13.614-4.413-19.612h26.95v120.684h-26.546c-4.143 0-7.5 3.358-7.5 7.5s3.357 7.5 7.5 7.5h27.722c7.623 0 13.824-6.201 13.824-13.824v-123.036c0-7.623-6.201-13.824-13.824-13.824h-30.151c-5.005 0-9.639 2.717-12.092 7.092-2.427 4.327-2.335 9.633.24 13.847 2.375 3.888 3.519 8.377 3.306 12.982-.542 11.749-10.175 21.298-21.929 21.74-6.256.238-12.225-2.027-16.737-6.372-4.515-4.349-7.001-10.194-7.001-16.461 0-4.173 1.132-8.251 3.273-11.793 2.596-4.294 2.683-9.667.226-14.023-2.476-4.39-6.968-7.011-12.017-7.011h-28.979v-26.952c5.464 2.92 11.587 4.456 17.828 4.456 10.38 0 20.063-4.118 27.265-11.596 7.198-7.475 10.948-17.314 10.558-27.706-.731-19.484-16.562-35.451-36.037-36.35-6.869-.312-13.613 1.204-19.613 4.414v-28.126c0-7.623-6.201-13.824-13.824-13.824h-54.902c31.019-33.715 74.022-53.057 120.062-53.547 7.85-.081 15.687.394 23.425 1.398l-34.498 34.495c-5.39 5.39-5.39 14.16 0 19.55l21.32 21.32c3.54 3.54 8.739 4.895 13.564 3.536 4.775-1.343 8.463-5.16 9.622-9.96 1.07-4.43 3.437-8.413 6.842-11.518 8.693-7.924 22.254-7.866 30.879.134 4.608 4.274 7.212 10.077 7.329 16.339.118 6.267-2.258 12.159-6.689 16.591-2.949 2.95-6.633 5.033-10.653 6.024-4.873 1.201-8.733 4.94-10.076 9.758-1.353 4.855-.029 9.884 3.54 13.453l21.322 21.323c5.391 5.39 14.16 5.39 19.551 0l19.89-19.89c1.798 5.929 5.041 11.344 9.455 15.758 7.166 7.167 16.638 11.086 26.743 11.086.244 0 .49-.002.735-.007 5.021-.094 9.858-1.16 14.319-3.089 1.625 12.859 4.817 25.444 9.508 37.416l22.98 58.648c.524 1.338-.103 2.823-1.429 3.379l-27.466 11.539c-3.143 1.32-5 4.594-4.521 7.97l9.152 64.415c.55 3.87-.483 7.688-2.909 10.753s-5.905 4.947-9.798 5.3l-50.539 4.585c-3.863.351-6.822 3.59-6.822 7.469v91.569c0 4.142 3.357 7.5 7.5 7.5s7.5-3.358 7.5-7.5v-84.719l43.717-3.966c8.026-.729 15.201-4.61 20.204-10.929 5.002-6.319 7.132-14.193 5.999-22.173l-8.339-58.687 22.131-9.297c8.896-3.735 13.106-13.698 9.588-22.681zm-272.322-127.279c4.326 2.426 9.632 2.335 13.849-.239 3.89-2.375 8.391-3.521 12.98-3.306h.001c11.749.542 21.299 10.174 21.739 21.929.236 6.282-2.026 12.226-6.371 16.737-4.349 4.515-10.194 7.001-16.461 7.001-4.172 0-8.25-1.132-11.794-3.274-4.296-2.597-9.671-2.682-14.023-.225-4.39 2.476-7.011 6.968-7.011 12.016v28.979h-26.952c2.921-5.465 4.456-11.587 4.456-17.828 0-10.38-4.118-20.063-11.597-27.265-7.474-7.198-17.301-10.946-27.704-10.557-19.484.732-35.451 16.562-36.351 36.038-.317 6.879 1.204 13.614 4.413 19.612h-26.95v-120.685h120.685v28.975c0 5.005 2.717 9.638 7.091 12.092z"/></g></svg>