<svg id="Layer_1" enable-background="new 0 0 512 512" height="512" viewBox="0 0 512 512" width="512" xmlns="http://www.w3.org/2000/svg"><g><g><path d="m461.992 295.955-23.674-60.418c-4.73-12.07-7.856-24.701-9.441-37.567-10.955-88.898-87.194-157.583-179.281-156.603-98.082 1.044-177.441 81.897-176.743 179.982.418 58.721 29.174 110.687 73.26 142.955 8.356 6.116 13.396 15.761 13.396 26.116v111.279c0 5.69 4.612 10.302 10.302 10.302h185.233c5.69 0 10.302-4.612 10.302-10.302v-84.031l52.064-4.723c12.694-1.152 21.835-12.7 20.042-25.319l-9.429-66.36 28.295-11.887c5.222-2.194 7.739-8.152 5.674-13.424z" fill="#8dcafc"/><g fill="#64b9fc"><path d="m328.851 292.605v126.745c0 3.602-2.926 6.519-6.518 6.519h-162.828v-35.416c0-10.233-4.83-19.903-13.098-25.93-44.247-32.254-73.135-84.32-73.555-143.17-.194-26.718 5.556-52.147 16.015-75.049h93.683c3.602 0 6.519 2.916 6.519 6.518v31.057c0 5.045 5.515 8.248 9.813 5.618 5.137-3.131 11.236-4.83 17.754-4.523 16.107.737 29.164 13.907 29.768 30.013.665 17.826-13.579 32.469-31.241 32.469-5.915 0-11.441-1.637-16.148-4.482-4.37-2.64-9.946.43-9.946 5.536v31.057c0 3.602-2.917 6.518-6.519 6.518 3.602 0 6.519 2.917 6.519 6.518 0-3.602 2.916-6.518 6.508-6.518l23.893 4.784c5.106 0 8.176 5.577 5.536 9.946-2.845 4.717 2.693 5.459 2.693 11.364 0 17.662 14.643 31.917 32.469 31.241 16.107-.604 29.276-13.651 30.013-29.758.307-6.518 4.001-10.648.87-15.785-2.63-4.298.573-9.814 5.608-9.814l25.675-1.98c3.59.003 6.517 2.92 6.517 6.522z"/><g><path d="m365.346 417.667h-31.098c-5.23 0-9.47 4.24-9.47 9.47v84.863h30.266c5.69 0 10.302-4.612 10.302-10.302z"/><path d="m461.993 295.959-23.674-60.426c-4.744-12.102-7.86-24.773-9.46-37.68-10.9-88.011-85.805-156.184-176.704-156.496-6.951-.019-13.807.35-20.549 1.117 25.932 2.876 50.213 11.221 71.667 23.853l-59.539 59.531c-2.538 2.548-2.538 6.672 0 9.21l21.97 21.97c3.561 3.561 9.732 1.924 10.908-2.968 1.412-5.853 4.533-11.369 9.353-15.769 11.911-10.857 30.453-10.775 42.272.184 13.078 12.126 13.364 32.561.87 45.056-4.175 4.175-9.24 6.928-14.592 8.248-4.953 1.218-6.733 7.337-3.121 10.939l21.97 21.97c2.538 2.548 6.672 2.548 9.21 0l21.97-21.97c3.612-3.602 9.721-1.832 10.949 3.121 1.31 5.352 4.062 10.417 8.238 14.592 3.955 3.955 8.707 6.625 13.738 8.018 1.056 3.372 2.219 6.712 3.512 10.008l24.034 61.326c2.093 5.36-.464 11.401-5.767 13.627l-21.985 9.235c-3.969 1.667-6.314 5.801-5.708 10.063l8.546 60.134c1.335 9.375-3.286 18.163-10.909 22.651l28.22-2.557c12.699-1.155 21.837-12.699 20.048-25.322l-9.432-66.363 28.295-11.884c5.215-2.187 7.734-8.153 5.67-13.418z"/></g></g></g><g><path d="m428.968 142.977c-4.398-4.823-9.915-7.941-15.76-9.353-4.897-1.183-6.533-7.35-2.97-10.913l21.964-21.964c2.544-2.544 2.544-6.669 0-9.214l-89.626-89.625c-2.544-2.544-6.669-2.544-9.214 0l-89.625 89.625c-2.544 2.544-2.544 6.669 0 9.214l21.964 21.964c3.562 3.562 9.73 1.927 10.913-2.97 1.412-5.845 4.53-11.363 9.353-15.76 11.913-10.862 30.451-10.781 42.271.183 13.075 12.128 13.359 32.562.869 45.053-4.178 4.178-9.244 6.926-14.591 8.244-4.958 1.222-6.73 7.336-3.119 10.947l21.966 21.966c2.544 2.544 6.669 2.544 9.214 0l21.966-21.966c3.611-3.611 9.725-1.839 10.947 3.119 1.318 5.347 4.067 10.413 8.244 14.591 12.491 12.491 32.925 12.206 45.053-.869 10.962-11.821 11.043-30.359.181-42.272z" fill="#27d1b3"/><path d="m428.786 185.25c-9.353 10.08-23.669 12.556-35.447 7.409.45-.44.901-.88 1.33-1.351 10.959-11.819 11.041-30.351.184-42.262-4.4-4.83-9.916-7.941-15.769-9.353-4.891-1.187-6.529-7.357-2.967-10.919l21.96-21.96c2.548-2.548 2.548-6.672 0-9.22l-80.196-80.196 15.483-15.493c2.538-2.538 6.672-2.538 9.21 0l89.63 89.631c2.538 2.538 2.538 6.662 0 9.21l-21.97 21.96c-3.561 3.571-1.924 9.732 2.978 10.918 5.843 1.412 11.358 4.533 15.759 9.353 10.856 11.912 10.775 30.454-.185 42.273z" fill="#20b69f"/></g><g><path d="m216.641 150.644c-6.52-.301-12.626 1.396-17.758 4.531-4.299 2.626-9.817-.578-9.817-5.616v-31.061c0-3.598-2.917-6.515-6.515-6.515h-126.749c-3.598 0-6.515 2.917-6.515 6.515v126.75c0 3.598 2.917 6.515 6.515 6.515l17.046 5.151 14.015-5.151c5.038 0 8.243-5.517 5.616-9.817-3.135-5.132-4.832-11.238-4.531-17.758.362-7.841 8.819-9.807 13.976-15.116 5.435-5.596 7.776-14.334 16.043-14.645 8.91-.335 11.877 8.211 17.768 13.897 5.89 5.686 14.704 8.514 14.704 17.346 0 5.908-1.639 11.434-4.487 16.147-2.641 4.37.429 9.946 5.535 9.946l18.216 5.151 12.849-5.151c3.598 0 6.515-2.917 6.515-6.515v-31.065c0-5.106 5.576-8.177 9.946-5.535 4.713 2.849 10.238 4.487 16.147 4.487 17.665 0 31.913-14.65 31.243-32.471-.607-16.111-13.658-29.276-29.762-30.02z" fill="#fc9744"/><g fill="#fb7722"><path d="m189.304 151.277c-1.586-.348-3.213-.553-4.881-.634-6.519-.297-12.628 1.402-17.754 4.533-4.298 2.63-9.824-.583-9.824-5.618v-31.057c0-3.602-2.917-6.518-6.508-6.518h32.213c3.602 0 6.519 2.916 6.519 6.518v31.057c0 .604.081 1.177.235 1.719z"/><path d="m215.163 213.135c-5.894 0-11.41-1.627-16.107-4.472 9.404-5.659 15.575-16.127 15.124-27.998-.409-10.806-6.396-20.282-15.165-25.572 5.106-3.08 11.154-4.748 17.621-4.451 16.107.747 29.164 13.907 29.768 30.024.665 17.816-13.579 32.469-31.241 32.469z"/><path d="m189.294 212.491c-.154.532-.225 1.095-.225 1.688v31.067c0 3.602-2.917 6.518-6.519 6.518h-31.067c-.164 0-.327-.01-.481-.031 3.285-.338 5.843-3.111 5.843-6.488v-31.067c0-5.106 5.577-8.176 9.946-5.536 4.717 2.855 10.243 4.492 16.148 4.492 2.18.001 4.298-.224 6.355-.643z"/></g></g><g><path d="m87.949 224.187c-.301 6.52 1.396 12.626 4.531 17.758 2.626 4.299-.578 9.817-5.616 9.817h-31.062c-3.598 0-6.515 2.917-6.515 6.515v126.75c0 3.598 2.917 6.515 6.515 6.515h126.75c3.598 0 6.515-2.917 6.515-6.515l10.302-12.809-10.302-18.252c0-5.038-5.517-8.243-9.817-5.616-5.132 3.135-11.238 4.832-17.758 4.531-7.275-.336-8.775-8.357-13.938-12.889-6.267-5.5-15.491-8.297-15.823-17.13-.395-10.524 9.562-14.791 17.202-20.739 5.298-4.125 6.807-11.732 14.041-11.732 5.908 0 11.434 1.639 16.147 4.487 4.37 2.642 9.946-.429 9.946-5.535l10.302-14.243-10.302-16.822c0-3.598-2.917-6.515-6.515-6.515h-31.065c-5.106 0-8.177-5.576-5.535-9.946 2.849-4.713 4.487-10.238 4.487-16.147 0-17.665-14.65-31.913-32.471-31.243-16.111.605-29.276 13.656-30.019 29.76z" fill="#fb4a59"/><g fill="#f82f40"><path d="m189.069 353.962v31.067c0 3.592-2.917 6.508-6.519 6.508h-32.213c3.592 0 6.508-2.916 6.508-6.508v-31.067c0-.604-.082-1.177-.225-1.709 1.586.338 3.213.552 4.871.624 6.518.307 12.627-1.392 17.754-4.523 4.308-2.63 9.824.573 9.824 5.608z"/><path d="m146.898 348.426c-5.096 3.09-11.154 4.758-17.621 4.451-16.107-.737-29.154-13.907-29.768-30.013-.665-17.826 13.579-32.469 31.251-32.469 5.894 0 11.41 1.627 16.107 4.462-9.404 5.659-15.585 16.127-15.135 28.008.41 10.794 6.397 20.27 15.166 25.561z"/><path d="m189.069 258.273v31.067c0 5.106-5.577 8.176-9.947 5.536-4.717-2.845-10.243-4.482-16.148-4.482-2.18 0-4.298.225-6.355.645.154-.532.225-1.105.225-1.699v-31.067c0-3.592-2.917-6.508-6.508-6.508h-31.067c-5.106 0-8.176-5.577-5.536-9.946 2.845-4.717 4.492-10.243 4.492-16.148 0-11.358-6.048-21.295-15.114-26.78 4.38-2.661 9.455-4.257 14.858-4.462 17.816-.675 32.469 13.579 32.469 31.241 0 5.904-1.637 11.43-4.492 16.148-2.64 4.37.43 9.946 5.536 9.946h31.067c3.603.001 6.52 2.917 6.52 6.509z"/></g></g><g><path d="m161.492 352.88c6.52.301 12.626-1.396 17.758-4.531 4.299-2.626 9.817.578 9.817 5.616v31.061c0 3.598 2.917 6.515 6.515 6.515h126.75c3.598 0 6.515-2.917 6.515-6.515v-126.75c0-3.598-2.917-6.515-6.515-6.515h-31.062c-5.038 0-8.243 5.517-5.616 9.817 3.135 5.132 4.832 11.238 4.531 17.758-.743 16.104-13.909 29.155-30.019 29.761-17.821.67-32.471-13.578-32.471-31.243 0-5.908 1.639-11.434 4.487-16.147 2.641-4.37-.429-9.946-5.535-9.946h-31.065c-3.598 0-6.515 2.917-6.515 6.515v31.065c0 5.106-5.576 8.177-9.946 5.535-4.713-2.849-10.238-4.487-16.147-4.487-17.665 0-31.913 14.65-31.243 32.471.605 16.111 13.656 29.276 29.761 30.02z" fill="#fee265"/><path d="m328.851 258.273v126.756c0 3.592-2.926 6.508-6.518 6.508h-32.224c3.602 0 6.518-2.916 6.518-6.508v-126.756c0-3.367-2.558-6.14-5.853-6.478.154-.02.328-.031.491-.031h31.067c3.592.001 6.519 2.917 6.519 6.509z" fill="#f8c52d"/></g></g></svg>