<svg id="Capa_1" enable-background="new 0 0 497.002 497.002" height="512" viewBox="0 0 497.002 497.002" width="512" xmlns="http://www.w3.org/2000/svg"><g><path d="m388.031 271.648c-20.086-1.007-38.297 7.067-50.93 20.46-5.84-1.571-12.099-2.117-18.589-1.368-23.533 2.715-42.009 22.191-43.484 45.834-1.789 28.676 20.939 52.491 49.229 52.491.603 0 1.204-.011 1.802-.032 9.97-.359 19.893 1.565 28.764 6.13 8.947 4.603 19.092 7.205 29.847 7.205 28.869 0 53.369-18.705 62.043-44.657.993-2.97-1.178-12.174-.617-15.317.844-4.728 1.933-6.723 1.702-11.745-1.536-33.406-26.369-57.327-59.767-59.001z" fill="#dc4955"/><path d="m446.71 357.709c-11.32 4.4-23.41 6.85-35.83 7.2-1.03.03-2.06.05-3.09.05-8.07 0-16.02-.88-23.75-2.61-6.641-1.488-13.127-3.605-19.375-6.326-1.825-.795-3.945-.41-5.391.958-14.848 14.046-34.527 22.041-55.654 22.088-1.16.02-2.32.03-3.47.03-1.97 0-3.89-.03-5.75-.1-12.61-9.59-20.45-25.13-19.37-42.43 1.47-23.64 19.95-43.11 43.48-45.83 6.49-.75 12.75-.2 18.59 1.37 12.63-13.39 30.84-21.47 50.93-20.46 33.4 1.67 60.43 28.82 61.97 62.23.39 8.36-.8 16.39-3.29 23.83z" fill="#d82f3c"/><path d="m346.741 471.693-22.785.913c-6.645 0-12.807-3.472-16.251-9.155l-8.607-6.8-15.84-26.146c-3.951-6.522-9.639-11.816-16.427-15.291-23.884-12.224-43.647-31.2-56.831-54.568l72.683-35.314 72.86 131.614c3.592 6.663-1.233 14.747-8.802 14.747z" fill="#df646e"/><path d="m351.25 474.649h-30.55c-6.64 0-12.8-3.48-16.25-9.16l-5.35-8.84h30.52c3.79 0 6.2-4.05 4.4-7.38l-63.62-117.97 16.08-7.81 73.57 136.41c3.59 6.66-1.23 14.75-8.8 14.75z" fill="#dc4955"/><path d="m471.858 198.566c-1.552-1.816-1.599-4.447-.146-6.344 9.691-12.646 14.553-27.134 14.553-44.298.077-37.464-23.369-70.29-59.765-75.436-2.683-.379-5.411-.614-8.175-.696-1.856-.055-3.524-1.141-4.329-2.814-12.12-25.197-37.879-42.594-67.71-42.594-21.369 0-40.653 8.926-54.329 23.251-1.951 2.044-5.219 2.049-7.175.01-16.144-16.821-38.85-27.294-64.006-27.294-31.781 0-59.655 16.715-75.321 41.83-1.177 1.887-3.449 2.818-5.584 2.196-5.998-1.749-12.337-2.694-18.899-2.694-35.689 0-64.893 27.685-67.354 62.748-.135 1.919-1.366 3.579-3.155 4.284-29.545 11.644-50.463 40.424-50.463 74.106 0 17.201 5.465 33.118 14.739 46.136 1.023 1.437 1.209 3.307.483 4.915-4.396 9.725-6.632 20.634-6.06 32.128 1.764 35.391 30.38 64.091 65.768 65.926 24.517 1.271 46.417-10.172 59.749-28.309 1.069 3.398 5.076 3.816 6.736 6.904 9.521 17.709 26.144 26.723 47.66 26.723 7.687 0 16.811-1.814 23.489-4.596 7.973 7.667 19.044 13.787 30.979 13.787 13.723 0 29.652-9.275 37.787-19.064 8.181 2.499 12.978 5.634 23.149 5.447 22.644 0 41.416-6.8 52.376-24.83 9.096 6.336 19.425 11.025 30.556 13.629 7.338 1.716 16.39.275 24.302.053 47.744-1.34 78.536-39.472 78.894-87.234.166-22.376-5.293-42.124-18.749-57.87z" fill="#df646e"/><path d="m497 257.419c-.36 47.76-38.91 87.16-86.65 88.5-7.91.22-15.6-.59-22.94-2.3.29-.01.57-.01.86-.02 48.31-1.36 87.32-41.23 87.68-89.56.17-22.64-8-43.36-21.61-59.3-1.57-1.84-1.62-4.5-.15-6.42 9.81-12.79 15.64-28.79 15.64-46.16.07-31.17-19.18-58.45-46.5-70.04 37.92 3.68 67.7 36.19 67.62 74.74 0 17.16-5.77 32.97-15.46 45.61-1.45 1.9-1.41 4.53.15 6.35 13.45 15.74 21.52 36.23 21.36 58.6z" fill="#dc4955"/><g><g><path d="m245.939 372.676c-11.841 0-23.143-3.982-32.304-11.3-6.472 2.149-13.219 3.236-20.118 3.236-29.006 0-54.429-19.572-61.823-47.596-.848-3.214-3.09-5.736-5.998-6.746-17.243-5.987-28.941-22.311-29.109-40.62-.181-19.809 13.073-37.135 32.232-42.136l.373-.095c3.448-.868 6.181-3.36 7.135-6.504 6.717-22.122 25.906-37.987 48.888-40.42 8.856-.937 17.806.204 26.106 3.304 10.631-5.631 22.52-8.591 34.618-8.591 17.301 0 34.139 6.102 47.411 17.181 3.181 2.654 3.606 7.384.952 10.564-2.655 3.18-7.386 3.605-10.563.952-10.581-8.832-24.005-13.696-37.8-13.696-10.672 0-21.135 2.886-30.259 8.346-2.113 1.265-4.711 1.41-6.95.395-6.851-3.108-14.435-4.332-21.938-3.537-16.976 1.797-31.15 13.518-36.112 29.86-2.475 8.151-9.304 14.547-17.822 16.691l-.277.071c-12.271 3.203-21.11 14.762-20.994 27.478.109 11.989 7.757 22.673 19.029 26.587 7.634 2.651 13.458 9.04 15.582 17.089 5.658 21.445 25.117 36.423 47.319 36.423 6.508 0 12.835-1.261 18.805-3.748 2.759-1.15 5.931-.552 8.082 1.517 6.904 6.639 15.974 10.295 25.535 10.295 11.973 0 23.247-5.863 30.158-15.685 2.086-2.964 5.99-4.015 9.284-2.49 7.268 3.363 15.026 5.069 23.061 5.069 26.71 0 49.477-19.063 54.136-45.328.723-4.078 4.625-6.798 8.694-6.075 4.079.724 6.799 4.616 6.075 8.695-5.932 33.438-34.91 57.708-68.905 57.708-8.227 0-16.229-1.406-23.862-4.186-9.782 10.922-23.829 17.292-38.641 17.292z" fill="#dc4955"/></g><g><path d="m420.48 187.72c-1.919 0-3.839-.732-5.304-2.197-2.929-2.929-2.929-7.678 0-10.606 5.5-5.5 8.442-12.817 8.286-20.604-.296-14.72-12.501-27.146-27.207-27.701-2.425-.09-4.835.122-7.173.635-8.432 1.851-17.165-.901-23.364-7.36-5.39-5.614-12.641-8.707-20.419-8.707-15.609 0-28.309 12.699-28.309 28.309 0 4.142-3.357 7.5-7.5 7.5s-7.5-3.358-7.5-7.5c0-23.88 19.428-43.309 43.309-43.309 11.901 0 22.996 4.73 31.24 13.319 2.554 2.661 6.041 3.82 9.327 3.096 3.58-.785 7.271-1.113 10.954-.973 22.888.863 41.178 19.482 41.638 42.389.24 11.907-4.262 23.099-12.675 31.512-1.464 1.464-3.384 2.197-5.303 2.197z" fill="#dc4955"/></g><g><path d="m105.918 164.745c-2.558 0-5.05-1.309-6.453-3.667-3.366-5.66-5.146-12.147-5.146-18.759 0-20.256 16.479-36.735 36.735-36.735 9.849 0 19.099 3.846 26.045 10.83 2.921 2.937 2.908 7.686-.028 10.606s-7.685 2.909-10.606-.028c-4.11-4.132-9.583-6.408-15.41-6.408-11.985 0-21.735 9.75-21.735 21.735 0 3.915 1.051 7.75 3.038 11.091 2.117 3.56.947 8.163-2.612 10.28-1.203.714-2.524 1.055-3.828 1.055z" fill="#dc4955"/></g><g><path d="m280.166 230.5c-4.143 0-7.5-3.358-7.5-7.5 0-26.371 21.454-47.825 47.825-47.825 16.455 0 31.555 8.301 40.39 22.205 2.222 3.496 1.188 8.131-2.308 10.353-3.495 2.221-8.132 1.188-10.353-2.308-6.067-9.549-16.434-15.25-27.729-15.25-18.1 0-32.825 14.725-32.825 32.825 0 4.142-3.357 7.5-7.5 7.5z" fill="#dc4955"/></g><g><path d="m425.311 222.774c-1.172 0-2.36-.275-3.47-.855-3.671-1.92-5.09-6.452-3.17-10.122 2.815-5.383 3.366-11.541 1.551-17.338s-5.78-10.541-11.163-13.356c-5.384-2.815-11.54-3.366-17.339-1.55-3.949 1.238-8.16-.963-9.398-4.916s.963-8.161 4.916-9.399c9.62-3.013 19.838-2.1 28.772 2.573 18.442 9.646 25.598 32.496 15.952 50.938-1.339 2.56-3.949 4.025-6.651 4.025z" fill="#dc4955"/></g></g></g></svg>