<svg height="512pt" viewBox="0 0 512 512" width="512pt" xmlns="http://www.w3.org/2000/svg"><path d="m155.6875 311h-32.9375v-50.984375c0-16.585937-6.621094-31.644531-17.347656-42.699219 18.320312-12.175781 30.425781-32.992187 30.425781-56.59375 0-37.445312-30.464844-67.914062-67.914063-67.914062-37.449218 0-67.914062 30.464844-67.914062 67.914062 0 20.402344 9.054688 38.714844 23.339844 51.175782-14.203125 11.25-23.339844 28.628906-23.339844 48.117187v151.859375h100.125v100.125h100.875v-155.6875c0-24.984375-20.328125-45.3125-45.3125-45.3125zm0 0"/><path d="m488.660156 211.898438c14.285156-12.460938 23.339844-30.773438 23.339844-51.175782 0-37.449218-30.464844-67.914062-67.914062-67.914062-37.449219 0-67.914063 30.464844-67.914063 67.914062 0 23.597656 12.105469 44.417969 30.425781 56.59375-10.726562 11.054688-17.347656 26.113282-17.347656 42.695313v50.988281h-32.9375c-24.984375 0-45.3125 20.328125-45.3125 45.3125v155.6875h100.875v-100.125h100.125v-151.859375c0-19.488281-9.136719-36.867187-23.339844-48.117187zm0 0"/><path d="m352 121.664062v-79.332031c0-23.34375-18.988281-42.332031-42.332031-42.332031h-107.335938c-23.34375 0-42.332031 18.988281-42.332031 42.332031v79.332031c0 23.34375 18.988281 42.335938 42.332031 42.335938h18.171875l35.496094 61.480469 35.496094-61.480469h18.171875c23.34375 0 42.332031-18.992188 42.332031-42.335938zm0 0"/></svg>