<svg height="512pt" viewBox="-55 0 512 512" width="512pt" xmlns="http://www.w3.org/2000/svg"><path d="m244.390625 433c0 43.628906 35.371094 79 79 79s79-35.371094 79-79-35.371094-79-79-79-79 35.371094-79 79zm117.5-15v30h-23.5v23.5h-30v-23.5h-23.5v-30h23.5v-23.5h30v23.5zm0 0"/><path d="m246.316406 355.925781c20.585938-20.585937 47.957032-31.925781 77.074219-31.925781 6.480469 0 12.878906.566406 19.132813 1.667969-10.535157-61.199219-53.417969-111.472657-110.355469-132.519531 27.847656-19.082032 46.152343-51.109376 46.152343-87.339844 0-58.34375-47.464843-105.808594-105.808593-105.808594s-105.808594 47.464844-105.808594 105.808594c0 36.226562 18.308594 68.257812 46.152344 87.339844-65.8125 24.332031-112.855469 87.707031-112.855469 161.871093v69.59375h214.707031c1.964844-25.957031 13.011719-50.089843 31.609375-68.6875zm0 0"/></svg>