<?xml version="1.0" encoding="iso-8859-1"?>
<!-- Generator: Adobe Illustrator 19.0.0, SVG Export Plug-In . SVG Version: 6.00 Build 0)  -->
<svg version="1.1" id="Capa_1" xmlns="http://www.w3.org/2000/svg" xmlns:xlink="http://www.w3.org/1999/xlink" x="0px" y="0px"
	 viewBox="0 0 480.052 480.052" style="enable-background:new 0 0 480.052 480.052;" xml:space="preserve">
<path style="fill:#EEE7EB;" d="M266.353,8.052c-96.498,0.034-177.988,71.664-190.4,167.36l-54.32,120.64h52.72v96h96v80h192v-105.84
	c14.545-8.321,27.917-18.545,39.76-30.4c74.978-74.983,74.974-196.551-0.009-271.529C366.1,28.281,317.269,8.054,266.353,8.052z
	 M178.353,192.052c-26.51,0-48-21.49-48-48s21.49-48,48-48c-26.51,0-48,21.49-48,48S151.843,192.052,178.353,192.052z
	 M178.353,160.052c-8.837,0-16-7.163-16-16C162.353,152.888,169.516,160.052,178.353,160.052z M218.353,120.052
	c8.837,0,16,7.163,16,16C234.353,127.215,227.19,120.052,218.353,120.052z M282.353,208.052c-17.138,0.007-32.973-9.146-41.52-24
	c-4.282-7.271-6.52-15.562-6.48-24c-0.04,8.438,2.198,16.729,6.48,24c13.205,22.931,42.498,30.815,65.429,17.611
	c7.32-4.215,13.396-10.291,17.611-17.611c4.282-7.271,6.52-15.562,6.48-24c0.04,8.438-2.198,16.729-6.48,24
	C315.326,198.906,299.491,208.059,282.353,208.052z M266.353,160.052c-0.013,2.82,0.754,5.589,2.216,8
	c2.845,4.928,8.094,7.974,13.784,8c5.81-0.043,11.148-3.205,13.976-8.28c-2.828,5.075-8.166,8.237-13.976,8.28
	c-5.69-0.026-10.939-3.072-13.784-8C267.107,165.64,266.34,162.872,266.353,160.052z M298.353,120.052c8.837,0,16,7.163,16,16
	C314.353,127.215,307.19,120.052,298.353,120.052z M393.553,160.356c-4.384,18.86-21.369,32.078-40.728,31.696
	C372.184,192.434,389.169,179.216,393.553,160.356c4.006-19.031-6.256-38.185-24.32-45.392c-0.414,12.036-5.37,23.47-13.872,32
	c8.502-8.53,13.458-19.964,13.872-32c-4.726-1.919-9.779-2.908-14.88-2.912c5.088,0.009,10.126,0.998,14.84,2.912
	c1.227-26.3-19.098-48.615-45.398-49.843c-6.329-0.295-12.652,0.674-18.602,2.851c5.946,8.156,9.153,17.987,9.16,28.08
	c0.002-10.09-3.193-19.92-9.128-28.08c-6.681,2.335-12.756,6.132-17.784,11.112c5.028-4.98,11.103-8.777,17.784-11.112
	c-15.494-21.477-45.466-26.328-66.943-10.833c-7.223,5.211-12.852,12.331-16.257,20.561c11.121,2.949,20.089,11.164,24,21.984
	c-3.911-10.82-12.879-19.035-24-21.984c-2.421,5.816-3.669,12.052-3.672,18.352c-0.005-6.298,1.235-12.535,3.648-18.352
	c-6.75-1.964-13.937-1.841-20.616,0.352c-18.349,6.344-28.675,25.79-23.656,44.544c-5.019-18.754,5.307-38.2,23.656-44.544
	c6.679-2.193,13.866-2.316,20.616-0.352c10.122-24.473,38.166-36.106,62.639-25.985c8.231,3.404,15.35,9.033,20.561,16.257
	c24.726-9.046,52.103,3.664,61.149,28.39c2.177,5.95,3.146,12.274,2.851,18.602C387.277,122.159,397.555,141.316,393.553,160.356
	L393.553,160.356z"/>
<path style="fill:#EEEAE2;" d="M394.353,152.052c-0.024,22.118-17.974,40.028-40.092,40.004
	c-10.662-0.012-20.879-4.275-28.388-11.844c-11.063,24.013-39.498,34.511-63.511,23.448c-5.971-2.751-11.312-6.703-15.689-11.608
	h-60.32v-0.72c-2.639,0.485-5.317,0.726-8,0.72c-26.51,0-48-21.49-48-48s21.49-48,48-48c1.069-0.029,2.139,0.025,3.2,0.16
	c6.372-14.654,20.821-24.14,36.8-24.16c2.067-0.016,4.13,0.172,6.16,0.56c12.962-23.125,42.216-31.363,65.341-18.401
	c8.276,4.639,14.992,11.627,19.299,20.081c20.854-7.29,43.669,3.705,50.959,24.559c1.483,4.243,2.241,8.706,2.241,13.201
	c0.013,0.269-0.014,0.539-0.08,0.8C380.931,116.621,394.349,133.017,394.353,152.052z"/>
<g>
	<path style="fill:#231F20;" d="M362.353,480.052h-192c-4.418,0-8-3.582-8-8v-72h-88c-4.418,0-8-3.582-8-8v-88h-44.72
		c-4.418-0.009-7.993-3.598-7.983-8.017c0.002-1.125,0.242-2.237,0.703-3.263l53.832-119.568
		C82.997,63.745,183.739-12.982,293.198,1.83s186.186,115.554,171.374,225.013c-5.872,43.392-25.822,83.658-56.787,114.617
		c-11.244,11.255-23.813,21.104-37.432,29.328v101.264C370.353,476.47,366.771,480.052,362.353,480.052L362.353,480.052z
		 M178.353,464.052h176v-97.84c-0.009-2.867,1.517-5.519,4-6.952c13.928-7.962,26.729-17.75,38.064-29.104
		c71.872-71.84,71.898-188.343,0.058-260.215S208.132-1.958,136.26,69.883c-28.761,28.749-47.189,66.215-52.403,106.545
		c-0.096,0.783-0.312,1.547-0.64,2.264l-49.208,109.36h40.344c4.418,0,8,3.582,8,8v88h88c4.418,0,8,3.582,8,8V464.052z"/>
	<path style="fill:#231F20;" d="M391.505,121.652c-3.952-4.802-8.799-8.791-14.272-11.744
		c-1.591-29.678-26.128-52.921-55.848-52.904c-4.529,0.019-9.038,0.583-13.432,1.68c-20.525-23.012-55.818-25.027-78.83-4.502
		c-4.631,4.131-8.542,9.005-11.57,14.422c-6.313-0.791-12.724-0.157-18.76,1.856c-9.344,3.238-17.365,9.455-22.832,17.696
		c-30.874,1.818-54.43,28.32-52.612,59.194c1.722,29.253,25.705,52.231,55.004,52.702h64c0.245-0.036,0.488-0.084,0.728-0.144
		c21.763,21.526,56.797,21.526,78.56,0c0.235,0.06,0.472,0.108,0.712,0.144h30.48c23.165,0.398,43.428-15.52,48.528-38.12
		C404.305,147.706,400.685,132.911,391.505,121.652z M385.673,158.764c-3.578,15.142-17.287,25.698-32.84,25.288h-20
		c3.622-7.483,5.509-15.687,5.52-24c0-4.418-3.582-8-8-8s-8,3.582-8,8c0.045,7.035-1.828,13.949-5.416,20
		c-11.002,19.101-35.405,25.666-54.506,14.664c-6.122-3.526-11.198-8.614-14.71-14.744c-3.561-6.031-5.417-12.916-5.368-19.92
		c0-4.418-3.582-8-8-8s-8,3.582-8,8c0.02,8.315,1.915,16.519,5.544,24h-53.544c-22.056,0.027-39.958-17.831-39.984-39.887
		c-0.022-18.457,12.606-34.524,30.544-38.865c-1.299,6.618-0.872,13.459,1.24,19.864c1.465,4.168,6.032,6.36,10.2,4.895
		c4.093-1.439,6.294-5.878,4.96-10.007c-3.527-14.55,4.525-29.41,18.64-34.4c2.471-0.787,5.047-1.197,7.64-1.216
		c-0.814,3.819-1.23,7.712-1.24,11.616c0,4.418,3.582,8,8,8s8-3.582,8-8c0.018-2.498,0.27-4.989,0.752-7.44
		c5.245,3.069,9.246,7.882,11.304,13.6c1.414,4.186,5.954,6.434,10.14,5.02c4.186-1.414,6.434-5.954,5.02-10.14
		c-3.515-10.142-10.769-18.56-20.28-23.536c12.194-18.166,36.806-23.007,54.972-10.812c1.246,0.837,2.444,1.744,3.588,2.716
		c-3.647,2.251-7.024,4.914-10.064,7.936c-3.178,3.069-3.266,8.134-0.196,11.312c3.07,3.178,8.134,3.266,11.312,0.196
		c0.067-0.064,0.132-0.13,0.196-0.196c2.646-2.567,5.634-4.756,8.88-6.504c2.839,5.523,4.338,11.638,4.376,17.848
		c0,4.418,3.582,8,8,8s8-3.582,8-8c0.006-7.805-1.63-15.524-4.8-22.656c1.288-0.12,2.552-0.376,3.864-0.376
		c18.791-0.021,35.046,13.081,39.016,31.448c-2.016-0.269-4.047-0.408-6.08-0.416c-4.418,0.004-7.996,3.59-7.992,8.008
		c0.004,4.412,3.58,7.988,7.992,7.992c2.108,0.025,4.209,0.258,6.272,0.696c-1.514,7.796-5.332,14.958-10.96,20.56
		c-3.178,3.07-3.266,8.134-0.196,11.312c3.07,3.178,8.134,3.266,11.312,0.196c0.067-0.064,0.132-0.13,0.196-0.196
		c6.822-6.81,11.757-15.276,14.32-24.568c1.378,1.141,2.66,2.393,3.832,3.744c6.188,7.523,8.599,17.462,6.544,26.984
		L385.673,158.764z"/>
	<path style="fill:#231F20;" d="M300.321,160.852c-3.827-2.207-8.72-0.894-10.927,2.934c0,0.001-0.001,0.001-0.001,0.002
		c-1.405,2.587-4.096,4.217-7.04,4.264c-2.844-0.014-5.466-1.537-6.888-4c-0.747-1.199-1.133-2.588-1.112-4c0-4.418-3.582-8-8-8
		s-8,3.582-8,8c-0.024,4.225,1.11,8.375,3.28,12c6.609,11.439,21.24,15.354,32.678,8.745c3.736-2.159,6.819-5.288,8.922-9.057
		C305.418,167.927,304.117,163.065,300.321,160.852z"/>
	<path style="fill:#231F20;" d="M298.353,112.052c-4.418,0-8,3.582-8,8s3.582,8,8,8s8,3.582,8,8s3.582,8,8,8s8-3.582,8-8
		C322.353,122.797,311.608,112.052,298.353,112.052z"/>
	<path style="fill:#231F20;" d="M178.353,152.052c-4.418,0-8-3.582-8-8s-3.582-8-8-8s-8,3.582-8,8c0,13.255,10.745,24,24,24
		c4.418,0,8-3.582,8-8S182.771,152.052,178.353,152.052z"/>
	<path style="fill:#231F20;" d="M218.353,112.052c-4.418,0-8,3.582-8,8s3.582,8,8,8s8,3.582,8,8s3.582,8,8,8s8-3.582,8-8
		C242.353,122.797,231.608,112.052,218.353,112.052z"/>
</g>
<g>
</g>
<g>
</g>
<g>
</g>
<g>
</g>
<g>
</g>
<g>
</g>
<g>
</g>
<g>
</g>
<g>
</g>
<g>
</g>
<g>
</g>
<g>
</g>
<g>
</g>
<g>
</g>
<g>
</g>
</svg>
