<svg height="512" viewBox="0 0 512 512" width="512" xmlns="http://www.w3.org/2000/svg"><g id="Flat"><path d="m409.73716 105.00008-11.13345-55.1086a12 12 0 0 0 -21.88384-4.07 11.09467 11.09467 0 0 1 -14.47145 3.86944 232.13472 232.13472 0 0 0 -327.10827 277.51055 15.99839 15.99839 0 0 0 21.252 9.8818l44.62852-18.14474a15.98534 15.98534 0 0 0 9.30068-19.38374 151.687 151.687 0 0 1 -6.32135-43.55479c0-83.81348 68.18652-152 152-152a151.26065 151.26065 0 0 1 60.43568 12.45755 11.111 11.111 0 0 1 5.00492 16.15853l-2.03492 3.19508a12 12 0 0 0 12.63586 18.17994l53.03426-11.36449a32 32 0 0 0 24.66136-37.62653z" fill="#03999c"/><path d="m455.60782 174.91673-44.62852 18.14474a15.98534 15.98534 0 0 0 -9.30068 19.38374 151.687 151.687 0 0 1 6.32138 43.55479c0 83.81348-68.18652 152-152 152a151.26137 151.26137 0 0 1 -60.43567-12.45759 11.111 11.111 0 0 1 -5.00492-16.1585l2.03491-3.19507a12 12 0 0 0 -12.63586-18.17994l-53.03426 11.36449a32 32 0 0 0 -24.66136 37.62653l11.13345 55.1086a12 12 0 0 0 21.88384 4.07 11.09463 11.09463 0 0 1 14.47143-3.86942 232.13474 232.13474 0 0 0 327.10829-277.51057 15.99839 15.99839 0 0 0 -21.25203-9.8818z" fill="#d13913"/><rect fill="#0e638b" height="32" rx="16" width="368" x="72" y="376"/><g fill="#6597eb"><rect height="144" rx="16" width="48" x="88" y="208"/><rect height="80" rx="16" width="48" x="184" y="272"/><rect height="240" rx="16" width="48" x="280" y="112"/><rect height="184" rx="16" width="48" x="376" y="168"/></g><path d="m256 408a151.26137 151.26137 0 0 1 -60.43567-12.45759 11.111 11.111 0 0 1 -5.00492-16.1585l2.03491-3.19507a12 12 0 0 0 -12.63586-18.17994l-53.03426 11.36449a32 32 0 0 0 -24.66136 37.62653l11.13345 55.1086a12 12 0 0 0 21.88384 4.07 11.09463 11.09463 0 0 1 14.47143-3.86942 230.33 230.33 0 0 0 106.24844 25.6909z" fill="#d13913"/></g></svg>