<svg id="Capa_1" enable-background="new 0 0 512 512" height="512" viewBox="0 0 512 512" width="512" xmlns="http://www.w3.org/2000/svg"><g><g><g><path d="m461.149 405.96h-51.76v-90.412h51.76c11.046 0 20 8.954 20 20v50.412c0 11.046-8.954 20-20 20z" fill="#ff8086"/></g><g><path d="m409.389 315.548h44.991v90.412h-44.991z" fill="#f46c7a"/></g><g><path d="m461.149 270.72h-51.76v-177.12h51.76c11.046 0 20 8.954 20 20v137.12c0 11.046-8.954 20-20 20z" fill="#ff8086"/></g><g><path d="m409.389 93.6h44.991v90.36h-44.991z" fill="#f46c7a"/></g><g><path d="m409.389 183.96v86.76h51.76c11.046 0 20-8.954 20-20v-66.76z" fill="#a4ccff"/></g><g><path d="m409.389 183.96h44.991v86.76h-44.991z" fill="#8bb3ea"/></g><g><path d="m64.645 22.5v467c0 8.284 6.716 15 15 15h322.064c19.33 0 35-15.67 35-35v-422c0-22.091-17.909-40-40-40h-317.064c-8.284 0-15 6.716-15 15z" fill="#0ed2b3"/></g><g><path d="m92.005 489.5v-467c0-8.284 6.716-15 15-15h-27.36c-8.284 0-15 6.716-15 15v467c0 8.284 6.716 15 15 15h27.36c-8.284 0-15-6.716-15-15z" fill="#0ab69f"/></g><g><path d="m300.966 168.504h-121.952c-5.523 0-10-4.477-10-10v-58.31c0-5.523 4.477-10 10-10h121.951c5.523 0 10 4.477 10 10v58.31c.001 5.523-4.476 10-9.999 10z" fill="#eef5f6"/></g><g><path d="m186.534 158.504v-58.31c0-5.523 4.477-10 10-10h-17.52c-5.523 0-10 4.477-10 10v58.31c0 5.523 4.477 10 10 10h17.52c-5.522 0-10-4.477-10-10z" fill="#deecf1"/></g><g><path d="m346.867 7.5h34.074v497h-34.074z" fill="#89b4c9"/></g><g><path d="m85.438 126.195h-41.586c-7.18 0-13-5.82-13-13v-13.832c0-7.18 5.82-13 13-13h41.587c7.18 0 13 5.82 13 13v13.832c-.001 7.18-5.821 13-13.001 13z" fill="#eef5f6"/></g><g><path d="m85.438 226.009h-41.586c-7.18 0-13-5.82-13-13v-13.832c0-7.18 5.82-13 13-13h41.587c7.18 0 13 5.82 13 13v13.832c-.001 7.18-5.821 13-13.001 13z" fill="#eef5f6"/></g><g><path d="m85.438 325.823h-41.586c-7.18 0-13-5.82-13-13v-13.832c0-7.18 5.82-13 13-13h41.587c7.18 0 13 5.82 13 13v13.832c-.001 7.18-5.821 13-13.001 13z" fill="#eef5f6"/></g><g><path d="m85.438 425.637h-41.586c-7.18 0-13-5.82-13-13v-13.832c0-7.18 5.82-13 13-13h41.587c7.18 0 13 5.82 13 13v13.832c-.001 7.18-5.821 13-13.001 13z" fill="#eef5f6"/></g><g><path d="m49.752 113.195v-13.832c0-7.18 5.82-13 13-13h-18.9c-7.18 0-13 5.82-13 13v13.833c0 7.18 5.82 13 13 13h18.9c-7.18-.001-13-5.821-13-13.001z" fill="#deecf1"/></g><g><path d="m49.752 213.009v-13.833c0-7.18 5.82-13 13-13h-18.9c-7.18 0-13 5.82-13 13v13.833c0 7.18 5.82 13 13 13h18.9c-7.18 0-13-5.82-13-13z" fill="#deecf1"/></g><g><path d="m49.752 312.823v-13.833c0-7.18 5.82-13 13-13h-18.9c-7.18 0-13 5.82-13 13v13.833c0 7.18 5.82 13 13 13h18.9c-7.18 0-13-5.82-13-13z" fill="#deecf1"/></g><g><path d="m49.752 412.637v-13.833c0-7.18 5.82-13 13-13h-18.9c-7.18 0-13 5.82-13 13v13.833c0 7.18 5.82 13 13 13h18.9c-7.18 0-13-5.82-13-13z" fill="#deecf1"/></g></g><g><path d="m461.149 86.1h-16.939v-38.6c0-26.191-21.309-47.5-47.5-47.5h-91.37c-4.143 0-7.5 3.358-7.5 7.5s3.357 7.5 7.5 7.5h34.026v288.907c0 4.142 3.357 7.5 7.5 7.5s7.5-3.358 7.5-7.5v-288.907h19.074v482h-19.074v-156.32c0-4.142-3.357-7.5-7.5-7.5s-7.5 3.358-7.5 7.5v156.32h-131.226c-4.142 0-7.5 3.358-7.5 7.5s3.358 7.5 7.5 7.5h193.569c23.435 0 42.5-19.065 42.5-42.5v-56.04h16.939c15.163 0 27.5-12.336 27.5-27.5v-50.412c0-15.164-12.337-27.5-27.5-27.5h-16.939v-29.828h16.939c15.163 0 27.5-12.336 27.5-27.5v-137.12c.001-15.163-12.336-27.5-27.499-27.5zm0 15c6.893 0 12.5 5.607 12.5 12.5v62.86h-29.439v-75.36zm-31.94 368.4c0 15.164-12.337 27.5-27.5 27.5h-13.269v-482h8.269c17.921 0 32.5 14.58 32.5 32.5zm31.94-146.452c6.893 0 12.5 5.607 12.5 12.5v50.412c0 6.893-5.607 12.5-12.5 12.5h-16.939v-75.412zm0-59.828h-16.939v-71.76h29.439v59.26c0 6.892-5.608 12.5-12.5 12.5z"/><path d="m169.014 497h-89.37c-4.136 0-7.5-3.364-7.5-7.5v-56.363h13.294c11.304 0 20.5-9.196 20.5-20.5v-13.833c0-11.304-9.196-20.5-20.5-20.5h-13.293v-44.981h13.294c11.304 0 20.5-9.196 20.5-20.5v-13.833c0-11.304-9.196-20.5-20.5-20.5h-13.294v-44.981h13.294c11.304 0 20.5-9.196 20.5-20.5v-13.833c0-11.304-9.196-20.5-20.5-20.5h-13.294v-44.981h13.294c11.304 0 20.5-9.196 20.5-20.5v-13.832c0-11.304-9.196-20.5-20.5-20.5h-13.294v-56.363c0-4.135 3.365-7.5 7.5-7.5h189.136c4.143 0 7.5-3.358 7.5-7.5s-3.357-7.5-7.5-7.5h-189.136c-12.407 0-22.5 10.093-22.5 22.5v56.363h-13.294c-11.304 0-20.5 9.196-20.5 20.5v13.833c0 11.304 9.196 20.5 20.5 20.5h13.293v44.981h-13.293c-11.304 0-20.5 9.196-20.5 20.5v13.833c0 11.304 9.196 20.5 20.5 20.5h13.293v44.981h-13.293c-11.304 0-20.5 9.196-20.5 20.5v13.833c0 11.304 9.196 20.5 20.5 20.5h13.293v44.981h-13.293c-11.304 0-20.5 9.196-20.5 20.5v13.833c0 11.304 9.196 20.5 20.5 20.5h13.293v56.362c0 12.407 10.093 22.5 22.5 22.5h89.37c4.142 0 7.5-3.358 7.5-7.5s-3.358-7.5-7.5-7.5zm-130.663-383.805v-13.832c0-3.033 2.467-5.5 5.5-5.5h41.587c3.033 0 5.5 2.467 5.5 5.5v13.833c0 3.033-2.467 5.5-5.5 5.5h-41.587c-3.032-.001-5.5-2.468-5.5-5.501zm0 99.814v-13.833c0-3.033 2.467-5.5 5.5-5.5h41.587c3.033 0 5.5 2.467 5.5 5.5v13.833c0 3.033-2.467 5.5-5.5 5.5h-41.587c-3.032 0-5.5-2.467-5.5-5.5zm0 99.814v-13.833c0-3.033 2.467-5.5 5.5-5.5h41.587c3.033 0 5.5 2.467 5.5 5.5v13.833c0 3.033-2.467 5.5-5.5 5.5h-41.587c-3.032 0-5.5-2.467-5.5-5.5zm0 99.814v-13.833c0-3.033 2.467-5.5 5.5-5.5h41.587c3.033 0 5.5 2.467 5.5 5.5v13.833c0 3.033-2.467 5.5-5.5 5.5h-41.587c-3.032 0-5.5-2.467-5.5-5.5z"/><path d="m318.466 158.504v-58.31c0-9.649-7.851-17.5-17.5-17.5h-121.952c-9.649 0-17.5 7.851-17.5 17.5v58.31c0 9.649 7.851 17.5 17.5 17.5h121.952c9.649 0 17.5-7.851 17.5-17.5zm-141.952 0v-58.31c0-1.378 1.122-2.5 2.5-2.5h121.952c1.379 0 2.5 1.122 2.5 2.5v58.31c0 1.378-1.121 2.5-2.5 2.5h-121.952c-1.378 0-2.5-1.122-2.5-2.5z"/><path d="m278.15 121.849h-76.32c-4.142 0-7.5 3.358-7.5 7.5s3.358 7.5 7.5 7.5h76.319c4.143 0 7.5-3.358 7.5-7.5s-3.357-7.5-7.499-7.5z"/></g></g></svg>