<svg id="Layer_5" enable-background="new 0 0 64 64" height="512" viewBox="0 0 64 64" width="512" xmlns="http://www.w3.org/2000/svg"><g><g><g><path d="m13.1 28.27-2.98.43c-1.39.2-2.73.71-3.91 1.49-.2.13-.39.28-.58.42-1.12-1.55-1.63-3.21-1.63-4.61 0-4 4-5 4-10v-3c0-6.08 4.92-11 11-11 1.26 0 2.48.3 3.58.85s2.06 1.35 2.82 2.35l.6.8c1.18.3 2.18.97 2.88 1.87.71.91 1.12 2.04 1.12 3.25v4.88c0 5 4 6 4 10 0 1.4-.51 3.06-1.63 4.61-.19-.14-.38-.29-.58-.42-1.18-.78-2.52-1.29-3.91-1.49l-2.98-.43-.57-.08c-.8-.11-1.46-.71-1.66-1.49l-.6-2.41c2.33-1.13 3.93-3.52 3.93-6.29v-5h-2.17c-1.81 0-3.55-.72-4.83-2-1.28 1.28-3.02 2-4.83 2h-2.17v5c0 1.94.78 3.68 2.05 4.95.55.55 1.18 1 1.88 1.34l-.6 2.41c-.2.78-.86 1.38-1.66 1.49z" fill="#656d78"/></g><g><circle cx="51" cy="13" fill="#e6e9ed" r="11"/></g><g><circle cx="51" cy="51" fill="#e6e9ed" r="11"/></g><g><path d="m58.88 20.67c-1.99 2.06-4.78 3.33-7.88 3.33s-5.89-1.27-7.88-3.33c.64-3.79 3.92-6.67 7.88-6.67s7.24 2.88 7.88 6.67z" fill="#ff826e"/></g><g><path d="m58.88 58.67c-1.99 2.06-4.78 3.33-7.88 3.33s-5.89-1.27-7.88-3.33c.64-3.79 3.92-6.67 7.88-6.67s7.24 2.88 7.88 6.67z" fill="#ff826e"/></g><g><circle cx="51" cy="10" fill="#f0d0b4" r="4"/></g><g><circle cx="51" cy="48" fill="#f0d0b4" r="4"/></g><g><path d="m32.37 30.61c1.05.82 1.9 1.85 2.51 2.99.72 1.35 1.12 2.88 1.12 4.46v3.94h-6-10l3.21-9 1.69-4.73 2.98.43c1.39.2 2.73.71 3.91 1.49.2.13.39.28.58.42z" fill="#b4dd7f"/></g><g><circle cx="19" cy="52" fill="#fcd770" r="10"/></g><g><path d="m26 13v5c0 2.77-1.6 5.16-3.93 6.29-.92.46-1.96.71-3.07.71s-2.15-.25-3.07-.71c-.7-.34-1.33-.79-1.88-1.34-1.27-1.27-2.05-3.01-2.05-4.95v-5h2.17c1.81 0 3.55-.72 4.83-2 1.28 1.28 3.02 2 4.83 2z" fill="#f0d0b4"/></g><g><path d="m24.9 28.27-1.69 4.73h-8.42l-1.69-4.73.57-.08c.8-.11 1.46-.71 1.66-1.49l.6-2.41c.92.46 1.96.71 3.07.71s2.15-.25 3.07-.71l.6 2.41c.2.78.86 1.38 1.66 1.49z" fill="#f0d0b4"/></g><g><path d="m23.21 33-3.21 9h-1-1l-3.21-9z" fill="#ccd1d9"/></g><g><path d="m5.63 30.61c.19-.14.38-.29.58-.42 1.18-.78 2.52-1.29 3.91-1.49l2.98-.43 1.69 4.73 3.21 9h-10-6v-3.94c0-2.92 1.35-5.66 3.63-7.45z" fill="#b4dd7f"/></g></g><g><path d="m20 45h-2v2c-1.654 0-3 1.346-3 3s1.346 3 3 3h2c.552 0 1 .449 1 1s-.448 1-1 1h-3v-1h-2v3h3v2h2v-2c1.654 0 3-1.346 3-3s-1.346-3-3-3h-2c-.552 0-1-.449-1-1s.448-1 1-1h3v1h2v-3h-3z"/><path d="m52 39.051v-14.102c6.15-.511 11-5.67 11-11.949 0-6.617-5.383-12-12-12s-12 5.383-12 12c0 6.279 4.85 11.438 11 11.949v14.101c-6.15.512-11 5.671-11 11.95h-9.051c-.3-3.306-2.067-6.189-4.645-8h11.696v-4.936c0-2.926-1.226-5.665-3.323-7.626.855-1.428 1.323-2.974 1.323-4.438 0-2.215-1.03-3.624-2.025-4.986-1.016-1.389-1.975-2.701-1.975-5.014v-4.877c0-2.764-1.793-5.178-4.402-5.994l-.398-.529c-1.69-2.254-4.382-3.6-7.2-3.6-6.617 0-12 5.383-12 12v3c0 2.313-.959 3.625-1.975 5.014-.995 1.362-2.025 2.771-2.025 4.986 0 1.464.468 3.01 1.323 4.438-2.096 1.961-3.323 4.7-3.323 7.626v4.936h11.695c-2.834 1.992-4.695 5.28-4.695 9 0 6.065 4.935 11 11 11 5.728 0 10.442-4.402 10.949-10h9.231c.957 5.666 5.886 10 11.82 10 6.617 0 12-5.383 12-12 0-6.279-4.85-11.438-11-11.949zm-33.296 1.949-2.5-7h5.591l-2.5 7zm.296-17c-3.309 0-6-2.691-6-6v-4h1.172c1.773 0 3.456-.585 4.828-1.665 1.372 1.08 3.055 1.665 4.828 1.665h1.172v4c0 3.308-2.691 6-6 6zm-2.704 2.938.324-1.299c.752.234 1.552.361 2.38.361s1.628-.127 2.38-.362l.325 1.299c.244.979.953 1.741 1.871 2.079l-1.066 2.984h-7.02l-1.065-2.983c.918-.338 1.626-1.1 1.871-2.079zm18.704 11.126v2.936h-4v-6h-2v6h-7.581l4.151-11.623 2.164.309c1.244.178 2.454.641 3.498 1.337 2.359 1.573 3.768 4.205 3.768 7.041zm-28.359-15.87c1.105-1.513 2.359-3.228 2.359-6.194v-3c0-5.514 4.486-10 10-10 2.192 0 4.285 1.047 5.601 2.8l.813 1.084.345.086c1.908.478 3.241 2.185 3.241 4.153v4.877c0 2.966 1.254 4.681 2.359 6.194.917 1.254 1.641 2.244 1.641 3.806 0 1.037-.331 2.146-.924 3.203-1.23-.768-2.623-1.291-4.059-1.496l-3.544-.507c-.404-.058-.729-.351-.829-.747l-.418-1.673c2.262-1.415 3.774-3.921 3.774-6.78v-6h-3.172c-1.557 0-3.021-.606-4.121-1.707l-.707-.708-.707.708c-1.101 1.101-2.564 1.707-4.121 1.707h-3.172v6c0 2.859 1.512 5.365 3.774 6.78l-.418 1.672c-.1.396-.425.69-.829.748l-3.544.506c-1.437.206-2.829.728-4.059 1.496-.593-1.056-.924-2.165-.924-3.202 0-1.562.724-2.552 1.641-3.806zm-3.641 15.87c0-2.836 1.409-5.469 3.769-7.042 1.044-.696 2.254-1.158 3.498-1.336l2.164-.309 4.15 11.623h-7.581v-6h-2v6h-4zm16 22.936c-4.963 0-9-4.038-9-9s4.037-9 9-9 9 4.038 9 9-4.037 9-9 9zm29-51c0-1.654 1.346-3 3-3s3 1.346 3 3-1.346 3-3 3-3-1.346-3-3zm3 13c-2.62 0-5-1.021-6.785-2.675.76-3.114 3.533-5.325 6.785-5.325s6.025 2.211 6.785 5.325c-1.785 1.654-4.165 2.675-6.785 2.675zm0-20c5.514 0 10 4.486 10 10 0 2.057-.626 3.97-1.695 5.562-.923-2.25-2.708-4.005-4.925-4.901.989-.914 1.62-2.211 1.62-3.661 0-2.757-2.243-5-5-5s-5 2.243-5 5c0 1.45.631 2.747 1.62 3.661-2.218.896-4.002 2.651-4.925 4.901-1.069-1.592-1.695-3.505-1.695-5.562 0-5.514 4.486-10 10-10zm-6.785 55.325c.76-3.114 3.533-5.325 6.785-5.325s6.025 2.211 6.785 5.325c-1.785 1.654-4.165 2.675-6.785 2.675s-5-1.021-6.785-2.675zm3.785-10.325c0-1.654 1.346-3 3-3s3 1.346 3 3-1.346 3-3 3-3-1.346-3-3zm11.305 8.562c-.923-2.25-2.708-4.005-4.925-4.901.989-.914 1.62-2.211 1.62-3.661 0-2.757-2.243-5-5-5s-5 2.243-5 5c0 1.45.631 2.747 1.62 3.661-2.218.896-4.002 2.651-4.925 4.901-1.069-1.592-1.695-3.505-1.695-5.562 0-5.514 4.486-10 10-10s10 4.486 10 10c0 2.057-.626 3.97-1.695 5.562z"/></g></g></svg>