<svg height="512" viewBox="0 0 512 512" width="512" xmlns="http://www.w3.org/2000/svg">
  <style type="text/css">
    polygon {
      fill: #0562dc;
      stroke: #000;
      stroke-width: 5;
    }
  </style>
  <g id="Outline"><path d="m256 456c79.4 0 144-64.6 144-144s-64.6-144-144-144-144 64.6-144 144 64.6 144 144 144zm0-272a128 128 0 1 1 -128 128 128.145 128.145 0 0 1 128-128z"/><path d="m176 344h48v48a8 8 0 0 0 8 8h48a8 8 0 0 0 8-8v-48h48a8 8 0 0 0 8-8v-48a8 8 0 0 0 -8-8h-48v-48a8 8 0 0 0 -8-8h-48a8 8 0 0 0 -8 8v48h-48a8 8 0 0 0 -8 8v48a8 8 0 0 0 8 8zm8-48h48a8 8 0 0 0 8-8v-48h32v48a8 8 0 0 0 8 8h48v32h-48a8 8 0 0 0 -8 8v48h-32v-48a8 8 0 0 0 -8-8h-48z"/><path d="m472 48h-24v-8a24 24 0 0 0 -48 0v8h-64v-8a24 24 0 0 0 -48 0v8h-64v-8a24 24 0 0 0 -48 0v8h-64v-8a24 24 0 0 0 -48 0v8h-24a24.028 24.028 0 0 0 -24 24v400a24.028 24.028 0 0 0 24 24h432a24.028 24.028 0 0 0 24-24v-400a24.028 24.028 0 0 0 -24-24zm-56-8a8 8 0 0 1 16 0v32a8 8 0 0 1 -16 0zm-112 0a8 8 0 0 1 16 0v32a8 8 0 0 1 -16 0zm-112 0a8 8 0 0 1 16 0v32a8 8 0 0 1 -16 0zm-112 0a8 8 0 0 1 16 0v32a8 8 0 0 1 -16 0zm400 432a8.009 8.009 0 0 1 -8 8h-432a8.009 8.009 0 0 1 -8-8v-328h448zm0-344h-448v-56a8.009 8.009 0 0 1 8-8h24v8a24 24 0 0 0 48 0v-8h64v8a24 24 0 0 0 48 0v-8h64v8a24 24 0 0 0 48 0v-8h64v8a24 24 0 0 0 48 0v-8h24a8.009 8.009 0 0 1 8 8z"/></g></svg>