<svg id="Layer_5" enable-background="new 0 0 64 64" height="512" viewBox="0 0 64 64" width="512" xmlns="http://www.w3.org/2000/svg"><g><g><g><path d="m13.76 9.62c.16.25.24.53.24.83 0 .85-.7 1.55-1.55 1.55h-1.45v12h-6v-12h-1.45c-.85 0-1.55-.7-1.55-1.55 0-.3.08-.58.24-.83l4.25-6.76c.31-.53.89-.86 1.51-.86s1.2.33 1.51.86z" fill="#ffeaa7"/></g><g><path d="m29.76 15.62c.16.25.24.53.24.83 0 .85-.7 1.55-1.55 1.55h-1.45v12h-6v-12h-1.45c-.85 0-1.55-.7-1.55-1.55 0-.3.08-.58.24-.83l4.25-6.76c.31-.53.89-.86 1.51-.86s1.2.33 1.51.86z" fill="#ffeaa7"/></g><g><path d="m55 10-5 3h-2l1.75-7.87 1.3.21c1.14.19 2.13.78 2.83 1.61s1.12 1.89 1.12 3.05z" fill="#b4dd7f"/></g><g><path d="m42.25 5.13 1.75 7.87h-2l-5-3c0-1.16.42-2.22 1.12-3.05s1.69-1.42 2.83-1.61z" fill="#b4dd7f"/></g><g><path d="m50 4-.25 1.13-1.75 7.87h-4l-1.75-7.87-.25-1.13s2-2 4-2 4 2 4 2z" fill="#a0d468"/></g><g><path d="m50 13h3c1.1 0 2 .9 2 2 0 .55-.22 1.05-.59 1.41-.36.37-.86.59-1.41.59h-2-10-2c-1.1 0-2-.9-2-2 0-.55.22-1.05.59-1.41.36-.37.86-.59 1.41-.59h3 2 4z" fill="#ffeaa7"/></g><g><path d="m61.22 32.26c.51 1.58.78 3.24.78 4.92 0 8.74-7.08 15.82-15.82 15.82h-.36c-3.04 0-5.87-.87-8.28-2.36.5-1.69.61-3.53.25-5.39-.03-.14-.05-.27-.09-.41-.91-3.96-3.92-7-7.68-8.23.12-3.16 1.16-6.23 3.04-8.79l7.94-10.82h10l7.94 10.82c1 1.36 1.76 2.86 2.28 4.44z" fill="#b4dd7f"/></g><g><path d="m37.7 44.84c.04.14.06.27.09.41.36 1.86.25 3.7-.25 5.39-.93 3.24-3.28 5.96-6.48 7.33l-.06.03v2c0 1.1-.9 2-2 2h-2c-1.1 0-2-.9-2-2v-1h-8v1c0 1.1-.9 2-2 2h-2c-1.1 0-2-.9-2-2v-2c-2.62-1.21-4.86-2.92-6-5h-1c-1.1 0-2-.9-2-2v-5c0-1.1.9-2 2-2h1l.27-.72c1.18-3.15 3.68-5.53 6.73-6.62l2-4.66c1.84 0 3.52 1.04 4.34 2.68l.66 1.32h7.24c1.31 0 2.58.21 3.78.61 3.76 1.23 6.77 4.27 7.68 8.23z" fill="#ff826e"/></g><g><circle cx="12" cy="43" fill="#838f9b" r="2"/></g></g><g><path d="m51 30.931c0-2.4-1.725-4.399-4-4.837v-2.094h-2v2.094c-2.275.437-4 2.436-4 4.837 0 2.268 1.536 4.234 3.734 4.784l2.046.512c1.307.326 2.22 1.496 2.22 2.843 0 1.616-1.314 2.93-2.931 2.93h-.139c-1.616 0-2.93-1.314-2.93-2.931v-1.069h-2v1.069c0 2.4 1.725 4.399 4 4.837v2.094h2v-2.094c2.275-.437 4-2.436 4-4.837 0-2.268-1.536-4.234-3.734-4.784l-2.046-.512c-1.307-.325-2.22-1.495-2.22-2.842 0-1.617 1.314-2.931 2.931-2.931h.139c1.616 0 2.93 1.314 2.93 2.931v.069z"/><path d="m59.744 27.232-6.77-9.232h.026c1.654 0 3-1.346 3-3 0-1.475-1.072-2.698-2.477-2.947l2.477-1.487v-.566c0-2.809-2.011-5.183-4.781-5.644l-.263-.044.14-.631-.389-.388c-.234-.235-2.36-2.293-4.707-2.293s-4.473 2.058-4.707 2.293l-.389.388.14.631-.263.044c-2.77.461-4.781 2.835-4.781 5.644v.566l2.477 1.486c-1.405.25-2.477 1.473-2.477 2.948 0 1.654 1.346 3 3 3h.026l-6.77 9.232c-1.747 2.383-2.821 5.159-3.141 8.095-.928-.207-1.887-.327-2.873-.327h-6.624l-.382-.764c-.998-1.996-3.005-3.236-5.236-3.236h-.659l-2.093 4.878c-3.198 1.276-5.705 3.826-6.915 7.053l-.025.069h-.308c-1.654 0-3 1.346-3 3v5c0 1.654 1.346 3 3 3h.432c1.396 2.18 3.673 3.682 5.568 4.629v1.371c0 1.654 1.346 3 3 3h2c1.654 0 3-1.346 3-3h6c0 1.654 1.346 3 3 3h2c1.654 0 3-1.346 3-3v-1.356c2.861-1.388 4.99-3.74 6.111-6.534 2.387 1.238 5.027 1.89 7.71 1.89h.359c9.274 0 16.82-7.546 16.82-16.821 0-3.601-1.126-7.041-3.256-9.947zm-8.853-20.903c1.62.27 2.841 1.546 3.07 3.128l-4.238 2.543h-.476l1.274-5.733zm-4.891-3.329c1.035 0 2.221.793 2.897 1.353l-1.699 7.647h-2.395l-1.7-7.647c.676-.56 1.862-1.353 2.897-1.353zm-4.891 3.329.37-.062 1.274 5.733h-.476l-4.238-2.543c.23-1.582 1.45-2.858 3.07-3.128zm-3.109 8.671c0-.551.448-1 1-1h14c.552 0 1 .449 1 1s-.448 1-1 1h-14c-.552 0-1-.449-1-1zm-7.393 42.081-.607.259v2.66c0 .551-.448 1-1 1h-2c-.552 0-1-.449-1-1v-2h-10v2c0 .551-.448 1-1 1h-2c-.552 0-1-.449-1-1v-2.64l-.58-.268c-2.624-1.213-4.593-2.837-5.543-4.572l-.284-.52h-1.593c-.552 0-1-.449-1-1v-5c0-.551.448-1 1-1h1.692l.514-1.367c1.055-2.814 3.289-5.012 6.131-6.029l.41-.147 1.89-4.405c1.207.199 2.25.958 2.811 2.079l.934 1.869h7.86c4.941 0 9.201 3.225 10.402 7.759-.618 1.348-1.972 2.241-3.472 2.241h-.257c.057-.327.085-.661.085-1 0-1.654-1.346-3-3-3s-3 1.346-3 3c0 1.522 1.14 2.784 2.611 2.975l-3.318 3.318 1.414 1.414 3.586-3.586c.342-.341.636-.718.878-1.121h1.001c1.435 0 2.78-.544 3.821-1.449-.033 4.103-2.443 7.839-6.386 9.53zm.393-11.081c0 .342-.045.678-.131 1h-.869c-.552 0-1-.449-1-1s.448-1 1-1 1 .449 1 1zm15.18 6h-.36c-2.483 0-4.924-.639-7.11-1.842.358-1.631.395-3.359.061-5.099-.808-4.213-3.79-7.58-7.698-9.129.228-2.728 1.181-5.314 2.795-7.515l7.639-10.415h8.986l7.638 10.415c1.877 2.56 2.869 5.591 2.869 8.764 0 8.173-6.648 14.821-14.82 14.821z"/><path d="m12 40c-1.654 0-3 1.346-3 3s1.346 3 3 3 3-1.346 3-3-1.346-3-3-3zm0 4c-.552 0-1-.449-1-1s.448-1 1-1 1 .449 1 1-.448 1-1 1z"/><path d="m3.553 13h.447v12h8v-12h.447c1.407 0 2.553-1.145 2.553-2.553 0-.483-.136-.953-.392-1.358l-4.236-6.747c-.497-.827-1.406-1.342-2.372-1.342s-1.875.515-2.361 1.326l-4.246 6.761c-.257.407-.393.877-.393 1.36 0 1.408 1.146 2.553 2.553 2.553zm-.468-2.847 4.258-6.781c.275-.459 1.028-.476 1.325.017l4.248 6.766c.055.087.084.188.084.292 0 .305-.248.553-.553.553h-2.447v12h-4v-12h-2.447c-.305 0-.553-.248-.553-.553 0-.104.029-.205.085-.294z"/><path d="m19.553 19h.447v12h8v-12h.447c1.407 0 2.553-1.145 2.553-2.553 0-.483-.136-.953-.392-1.358l-4.236-6.747c-.497-.827-1.406-1.342-2.372-1.342s-1.875.515-2.361 1.326l-4.246 6.762c-.257.406-.393.876-.393 1.359 0 1.408 1.146 2.553 2.553 2.553zm-.468-2.847 4.258-6.781c.275-.459 1.028-.476 1.325.017l4.248 6.766c.055.087.084.188.084.292 0 .305-.248.553-.553.553h-2.447v12h-4v-12h-2.447c-.305 0-.553-.248-.553-.553 0-.104.029-.205.085-.294z"/></g></g></svg>