<svg id="Capa_1" enable-background="new 0 0 512 512" height="512" viewBox="0 0 512 512" width="512" xmlns="http://www.w3.org/2000/svg"><g><path d="m248.259 387.979c0-17.112-9.921-32.671-25.435-39.891l-22.253-10.356h-104.6l-22.253 10.356c-15.514 7.22-25.435 22.78-25.435 39.891v116.499c0 4.155 3.368 7.522 7.522 7.522h184.931c4.154 0 7.522-3.368 7.522-7.522v-116.499z" fill="#ffd064"/><path d="m248.259 387.979c0-17.112-9.921-32.671-25.435-39.891l-22.253-10.356c-19.993-9.626-29.926-7.814-25.524 10.299l22.253 10.356c15.514 7.22 25.435 22.78 25.435 39.891v110.319c0 1.226-.3 2.38-.82 3.403h18.822c4.154 0 7.522-3.368 7.522-7.522z" fill="#ffc250"/><path d="m180.157 159.201h-63.772v-49.436c0-17.61 14.276-31.886 31.886-31.886 17.61 0 31.886 14.276 31.886 31.886z" fill="#2b4d66"/><path d="m236.367 276.527h-176.191c-10.556 0-19.114-8.558-19.114-19.114v-35.924c0-59.21 47.999-107.209 107.209-107.209 59.21 0 107.209 47.999 107.209 107.209v35.924c0 10.556-8.557 19.114-19.113 19.114z" fill="#365e7d"/><path d="m148.272 114.28c-4.961 0-9.841.344-14.622.997 52.291 7.133 92.587 51.963 92.587 106.212v35.924c0 10.556-8.558 19.114-19.114 19.114h29.245c10.556 0 19.114-8.558 19.114-19.114v-35.924c-.002-59.21-48.001-107.209-107.21-107.209z" fill="#2b4d66"/><path d="m101.411 342.083-19.462 41.005c-.161.34-.156.735.013 1.07.17.335.485.574.854.645l27.028 5.235c.43.083.781.391.921.806l16.251 48.252c.16.474.593.802 1.093.826.5.025.963-.259 1.168-.715l18.994-42.188v-68.855z" fill="#e7a52e"/><path d="m195.132 342.083 19.462 41.005c.161.34.156.735-.013 1.07-.17.335-.485.574-.854.645l-27.028 5.235c-.43.083-.781.391-.921.806l-16.251 48.252c-.16.474-.593.802-1.093.826-.499.025-.963-.259-1.168-.715l-18.994-42.188v-68.855z" fill="#e7a52e"/><path d="m139.982 392.233c3.684 6.381 12.894 6.381 16.578 0l28.843-49.957h-74.264z" fill="#ffcbbe"/><path d="m71.149 215.766c-1.408-.155-2.644.936-2.644 2.352v27.135 30.884 1.395c0 44.054 35.713 79.766 79.766 79.766 44.054 0 79.766-35.713 79.766-79.766v-59.993c0-1.19-.884-2.187-2.063-2.35-19.987-2.761-37.394-9.044-50.484-21.216-.86-.8-2.154-.873-3.09-.162-26.917 20.447-61.412 26.335-101.251 21.955z" fill="#ffddce"/><path d="m225.97 215.188c-18.57-2.567-36.754-8.453-50.478-21.215-.86-.8-2.154-.873-3.09-.163-26.919 20.447-61.414 26.335-101.253 21.955-1.408-.155-2.644.936-2.644 2.352v12.42c0-1.417 1.236-2.507 2.644-2.352 39.838 4.38 74.333 1.583 101.251-18.864.922-.7 2.21-.66 3.057.129 6.292 5.866 13.588 8.669 21.687 11.179 5.286 1.638 8.91 6.5 8.91 12.034v44.868c0 40.322-29.925 73.636-68.775 78.994 3.595.496 7.26.772 10.992.772 44.054 0 79.766-35.713 79.766-79.766 0-3.907 0-63.592 0-59.993.001-1.191-.887-2.186-2.067-2.35z" fill="#ffcbbe"/><g><g><path d="m118.628 264.106c-4.267 0-7.724-3.458-7.724-7.724v-.906c0-4.267 3.458-7.724 7.724-7.724 4.267 0 7.724 3.458 7.724 7.724v.906c0 4.266-3.458 7.724-7.724 7.724z" fill="#2b4d66"/></g><g><path d="m177.916 264.106c-4.267 0-7.724-3.458-7.724-7.724v-.906c0-4.267 3.458-7.724 7.724-7.724s7.724 3.458 7.724 7.724v.906c0 4.266-3.458 7.724-7.724 7.724z" fill="#2b4d66"/></g></g><g><path d="m148.271 310.951c-6.226 0-12.45-1.809-18.503-5.43-3.661-2.191-4.853-6.934-2.663-10.595 2.192-3.661 6.937-4.852 10.595-2.663 7.214 4.317 13.93 4.315 21.144 0 3.656-2.187 8.402-.999 10.594 2.664 2.19 3.661.998 8.403-2.664 10.594-6.051 3.62-12.278 5.43-18.503 5.43z" fill="#dd636e"/></g><g><path d="m224.123 470.749h-35.908c-4.267 0-7.724-3.458-7.724-7.724 0-4.267 3.458-7.724 7.724-7.724h35.908c4.267 0 7.724 3.458 7.724 7.724s-3.458 7.724-7.724 7.724z" fill="#e7a52e"/></g><path d="m417.253 111.443-39.98 15.312-39.98-15.312-53.31 119.282c-1.318 2.949 1.017 6.229 4.234 5.949l34.444-2.992c1.669-.145 3.266.707 4.076 2.174l16.713 30.284c1.62 2.936 5.848 2.915 7.439-.038l22.047-40.92c1.86-3.452 6.812-3.452 8.673 0l22.047 40.92c1.591 2.952 5.818 2.974 7.439.038l16.713-30.284c.809-1.467 2.407-2.319 4.076-2.174l34.444 2.992c3.218.279 5.552-3 4.234-5.949z" fill="#ffd064"/><path d="m377.273 201.01c26.171 0 50.214-9.095 69.154-24.29l-29.174-65.278-39.98 15.311-39.98-15.311-29.174 65.278c18.94 15.195 42.983 24.29 69.154 24.29z" fill="#ffc250"/><circle cx="377.273" cy="90.407" fill="#e7a52e" r="90.407"/><circle cx="377.273" cy="90.407" fill="#e7a52e" r="90.407"/><path d="m377.273 0c-4.279 0-8.487.304-12.608.879 43.961 6.135 77.8 43.877 77.8 89.528s-33.838 83.393-77.8 89.528c4.121.575 8.329.88 12.608.88 49.931 0 90.407-40.477 90.407-90.407.001-49.931-40.476-90.408-90.407-90.408z" fill="#e28424"/><path d="m381.086 46.917 13.241 22.303c.622 1.048 1.649 1.794 2.838 2.062l25.303 5.701c3.284.74 4.578 4.724 2.357 7.253l-17.119 19.485c-.805.916-1.197 2.123-1.084 3.337l2.397 25.826c.311 3.352-3.078 5.814-6.17 4.483l-23.821-10.261c-1.12-.482-2.389-.482-3.509 0l-23.821 10.261c-3.091 1.332-6.481-1.131-6.17-4.483l2.397-25.826c.113-1.214-.279-2.421-1.084-3.337l-17.119-19.485c-2.222-2.529-.927-6.513 2.357-7.253l25.303-5.701c1.189-.268 2.216-1.014 2.838-2.062l13.241-22.303c1.717-2.894 5.907-2.894 7.625 0z" fill="#ffd064"/><path d="m379.028 127.105 23.821 10.261c3.091 1.331 6.481-1.132 6.17-4.483l-2.397-25.826c-.113-1.214.279-2.42 1.084-3.337l17.12-19.485c2.222-2.529.927-6.513-2.357-7.253l-25.303-5.701c-1.189-.268-2.216-1.014-2.838-2.062l-13.241-22.303c-.859-1.447-2.336-2.17-3.813-2.17 7.411 33.257 7.761 60.869 0 81.997.596 0 1.194.121 1.754.362z" fill="#ffc250"/></g></svg>